<?xml version="1.0" encoding="UTF-8"?>
<svg xmlns="http://www.w3.org/2000/svg" xmlns:xlink="http://www.w3.org/1999/xlink" width="50px" height="50px" viewBox="0 0 50 50" version="1.1">
<g id="surface1">
<path style=" stroke:none;fill-rule:nonzero;fill:rgb(58.823532%,58.823532%,58.823532%);fill-opacity:1;" d="M 35.851562 1.042969 C 35.167969 1.019531 34.546875 1.445312 34.324219 2.09375 L 32.195312 8.265625 C 29.542969 6.988281 26.578125 6.25 23.4375 6.25 C 12.238281 6.25 3.125 15.363281 3.125 26.5625 C 3.125 37.761719 12.238281 46.875 23.4375 46.875 C 34.636719 46.875 43.75 37.761719 43.75 26.5625 C 43.75 23.421875 43.011719 20.457031 41.738281 17.808594 L 47.90625 15.679688 C 48.722656 15.394531 49.15625 14.507812 48.871094 13.691406 C 46.84375 7.804688 42.195312 3.15625 36.308594 1.128906 C 36.164062 1.074219 36.007812 1.046875 35.851562 1.042969 Z M 36.710938 4.761719 C 40.503906 6.480469 43.519531 9.496094 45.238281 13.292969 L 32.210938 17.789062 Z M 21.875 9.453125 L 21.875 25 L 6.328125 25 C 7.070312 16.742188 13.617188 10.195312 21.875 9.453125 Z M 25 9.457031 C 27.203125 9.660156 29.28125 10.277344 31.167969 11.234375 L 28.210938 19.800781 C 28.015625 20.367188 28.160156 20.996094 28.582031 21.417969 C 29.003906 21.839844 29.632812 21.984375 30.199219 21.789062 L 38.765625 18.832031 C 39.949219 21.160156 40.625 23.773438 40.625 26.5625 C 40.625 30.753906 39.132812 34.585938 36.648438 37.566406 L 25 25.914062 Z M 6.328125 28.125 L 22.789062 28.125 L 34.441406 39.773438 C 31.460938 42.257812 27.628906 43.75 23.4375 43.75 C 14.453125 43.75 7.117188 36.898438 6.328125 28.125 Z M 6.328125 28.125 "/>
</g>
</svg>
