<?xml version="1.0" encoding="UTF-8"?>
<svg xmlns="http://www.w3.org/2000/svg" xmlns:xlink="http://www.w3.org/1999/xlink" width="50px" height="50px" viewBox="0 0 50 50" version="1.1">
<g id="surface1">
<path style=" stroke:none;fill-rule:nonzero;fill:rgb(58.823532%,58.823532%,58.823532%);fill-opacity:1;" d="M 20.832031 5.207031 C 11.648438 5.207031 4.167969 12.6875 4.167969 21.871094 C 4.167969 24.546875 4.871094 27.046875 5.996094 29.289062 L 4.257812 35.523438 C 3.78125 37.230469 5.476562 38.929688 7.1875 38.453125 L 13.421875 36.714844 C 14.074219 37.039062 14.75 37.324219 15.441406 37.574219 C 18.445312 41.929688 23.480469 44.789062 29.167969 44.789062 C 31.839844 44.789062 34.335938 44.085938 36.578125 42.964844 L 42.8125 44.703125 C 44.523438 45.179688 46.21875 43.480469 45.742188 41.773438 L 44.003906 35.539062 C 45.128906 33.296875 45.832031 30.796875 45.832031 28.121094 C 45.832031 20.792969 41.082031 14.554688 34.476562 12.335938 C 31.457031 8.035156 26.472656 5.207031 20.832031 5.207031 Z M 20.832031 8.332031 C 28.332031 8.332031 34.375 14.375 34.375 21.875 C 34.375 29.371094 28.332031 35.414062 20.832031 35.414062 C 18.441406 35.414062 16.207031 34.792969 14.253906 33.707031 C 13.894531 33.503906 13.472656 33.453125 13.074219 33.566406 L 7.621094 35.085938 L 9.144531 29.636719 C 9.257812 29.238281 9.207031 28.816406 9.003906 28.453125 C 7.914062 26.503906 7.292969 24.265625 7.292969 21.871094 C 7.292969 14.375 13.335938 8.332031 20.832031 8.332031 Z M 36.742188 16.910156 C 40.335938 19.339844 42.707031 23.441406 42.707031 28.121094 C 42.707031 30.515625 42.085938 32.753906 40.996094 34.703125 C 40.792969 35.066406 40.742188 35.488281 40.855469 35.886719 L 42.378906 41.335938 L 36.925781 39.816406 C 36.527344 39.703125 36.105469 39.753906 35.746094 39.957031 C 33.792969 41.042969 31.558594 41.664062 29.167969 41.664062 C 25.871094 41.664062 22.878906 40.476562 20.535156 38.53125 C 20.632812 38.53125 20.734375 38.539062 20.832031 38.539062 C 30.019531 38.539062 37.5 31.0625 37.5 21.875 C 37.5 20.144531 37.234375 18.476562 36.742188 16.910156 Z M 36.742188 16.910156 "/>
</g>
</svg>
