<?xml version="1.0" encoding="UTF-8"?>
<svg xmlns="http://www.w3.org/2000/svg" xmlns:xlink="http://www.w3.org/1999/xlink" width="50px" height="50px" viewBox="0 0 50 50" version="1.1">
<g id="surface1">
<path style=" stroke:none;fill-rule:nonzero;fill:rgb(58.823532%,58.823532%,58.823532%);fill-opacity:1;" d="M 41.132812 7.269531 C 40.71875 7.277344 40.328125 7.453125 40.042969 7.75 L 25 22.789062 L 9.957031 7.75 C 9.664062 7.445312 9.261719 7.277344 8.835938 7.277344 C 8.203125 7.277344 7.628906 7.660156 7.390625 8.25 C 7.152344 8.839844 7.292969 9.515625 7.75 9.957031 L 22.789062 25 L 7.75 40.042969 C 7.339844 40.433594 7.175781 41.015625 7.320312 41.5625 C 7.460938 42.109375 7.890625 42.539062 8.4375 42.679688 C 8.984375 42.824219 9.566406 42.660156 9.957031 42.25 L 25 27.210938 L 40.042969 42.25 C 40.433594 42.660156 41.015625 42.824219 41.5625 42.679688 C 42.109375 42.539062 42.539062 42.109375 42.679688 41.5625 C 42.824219 41.015625 42.660156 40.433594 42.25 40.042969 L 27.210938 25 L 42.25 9.957031 C 42.714844 9.511719 42.859375 8.828125 42.609375 8.230469 C 42.363281 7.636719 41.777344 7.253906 41.132812 7.269531 Z M 41.132812 7.269531 "/>
</g>
</svg>
