<?xml version="1.0" encoding="UTF-8"?>
<svg xmlns="http://www.w3.org/2000/svg" xmlns:xlink="http://www.w3.org/1999/xlink" width="50px" height="50px" viewBox="0 0 50 50" version="1.1">
<g id="surface1">
<path style=" stroke:none;fill-rule:nonzero;fill:rgb(58.823532%,58.823532%,58.823532%);fill-opacity:1;" d="M 19.269531 5.207031 C 16.125 5.207031 13.542969 7.792969 13.542969 10.9375 L 13.542969 33.855469 C 13.542969 37 16.125 39.582031 19.269531 39.582031 L 35.9375 39.582031 C 39.082031 39.582031 41.667969 37 41.667969 33.855469 L 41.667969 10.9375 C 41.667969 7.792969 39.082031 5.207031 35.9375 5.207031 Z M 19.269531 8.332031 L 35.9375 8.332031 C 37.394531 8.332031 38.542969 9.480469 38.542969 10.9375 L 38.542969 33.855469 C 38.542969 35.3125 37.394531 36.457031 35.9375 36.457031 L 19.269531 36.457031 C 17.8125 36.457031 16.667969 35.3125 16.667969 33.855469 L 16.667969 10.9375 C 16.667969 9.480469 17.8125 8.332031 19.269531 8.332031 Z M 11.457031 10.417969 L 10.1875 11.261719 C 9.03125 12.035156 8.332031 13.335938 8.332031 14.730469 L 8.332031 34.894531 C 8.332031 40.363281 12.761719 44.792969 18.230469 44.792969 L 32.144531 44.792969 C 33.539062 44.792969 34.839844 44.09375 35.613281 42.9375 L 36.457031 41.667969 L 18.230469 41.667969 C 14.488281 41.667969 11.457031 38.636719 11.457031 34.894531 Z M 11.457031 10.417969 "/>
</g>
</svg>
