<?xml version="1.0" encoding="UTF-8"?>
<svg xmlns="http://www.w3.org/2000/svg" xmlns:xlink="http://www.w3.org/1999/xlink" width="50px" height="50px" viewBox="0 0 50 50" version="1.1">
<g id="surface1">
<path style=" stroke:none;fill-rule:nonzero;fill:rgb(58.823532%,58.823532%,58.823532%);fill-opacity:1;" d="M 15.105469 8.332031 C 13.109375 8.332031 11.457031 9.984375 11.457031 11.980469 L 11.457031 14.042969 L 6.460938 17.019531 C 5.039062 17.863281 4.167969 19.394531 4.167969 21.046875 L 4.167969 36.980469 C 4.167969 40.699219 7.214844 43.75 10.9375 43.75 L 39.0625 43.75 C 42.785156 43.75 45.832031 40.699219 45.832031 36.980469 L 45.832031 21.050781 C 45.832031 19.398438 44.960938 17.863281 43.542969 17.019531 L 38.542969 14.046875 L 38.542969 11.980469 C 38.542969 9.984375 36.890625 8.332031 34.894531 8.332031 Z M 15.105469 11.457031 L 34.894531 11.457031 C 35.203125 11.457031 35.417969 11.671875 35.417969 11.980469 L 35.417969 23.921875 L 25 28.992188 L 14.582031 23.921875 L 14.582031 15.175781 C 14.609375 15.007812 14.609375 14.835938 14.582031 14.667969 L 14.582031 11.980469 C 14.582031 11.671875 14.796875 11.457031 15.105469 11.457031 Z M 11.457031 17.683594 L 11.457031 22.402344 L 7.425781 20.441406 C 7.554688 20.140625 7.765625 19.878906 8.054688 19.703125 Z M 38.542969 17.683594 L 41.945312 19.707031 C 42.234375 19.878906 42.445312 20.140625 42.570312 20.441406 L 38.542969 22.402344 Z M 7.292969 23.851562 L 24.316406 32.136719 C 24.746094 32.34375 25.253906 32.34375 25.683594 32.136719 L 42.707031 23.851562 L 42.707031 36.980469 C 42.707031 39.011719 41.09375 40.625 39.0625 40.625 L 10.9375 40.625 C 8.90625 40.625 7.292969 39.011719 7.292969 36.980469 Z M 7.292969 23.851562 "/>
</g>
</svg>
