<?xml version="1.0" encoding="UTF-8"?>
<svg xmlns="http://www.w3.org/2000/svg" xmlns:xlink="http://www.w3.org/1999/xlink" width="50px" height="50px" viewBox="0 0 50 50" version="1.1">
<g id="surface1">
<path style=" stroke:none;fill-rule:nonzero;fill:rgb(58.823532%,58.823532%,58.823532%);fill-opacity:1;" d="M 25.011719 5.207031 C 24.414062 5.203125 23.867188 5.539062 23.601562 6.074219 L 18.234375 16.808594 L 5.492188 18.769531 C 4.910156 18.859375 4.425781 19.265625 4.246094 19.828125 C 4.0625 20.386719 4.207031 21 4.625 21.417969 L 13.441406 30.234375 L 11.476562 42.992188 C 11.386719 43.574219 11.632812 44.15625 12.109375 44.5 C 12.589844 44.84375 13.222656 44.886719 13.742188 44.613281 L 25 38.742188 L 36.257812 44.613281 C 36.777344 44.886719 37.410156 44.84375 37.890625 44.5 C 38.367188 44.15625 38.613281 43.574219 38.523438 42.992188 L 36.558594 30.234375 L 45.375 21.417969 C 45.792969 21 45.9375 20.386719 45.753906 19.828125 C 45.574219 19.265625 45.089844 18.859375 44.507812 18.769531 L 31.765625 16.808594 L 26.398438 6.074219 C 26.136719 5.546875 25.597656 5.210938 25.011719 5.207031 Z M 25 10.265625 L 29.332031 18.925781 C 29.558594 19.378906 29.988281 19.695312 30.492188 19.773438 L 40.984375 21.390625 L 33.792969 28.582031 C 33.4375 28.933594 33.277344 29.433594 33.351562 29.925781 L 34.964844 40.414062 L 25.722656 35.59375 C 25.269531 35.359375 24.730469 35.359375 24.277344 35.59375 L 15.035156 40.414062 L 16.648438 29.925781 C 16.722656 29.433594 16.5625 28.933594 16.207031 28.582031 L 9.015625 21.390625 L 19.507812 19.773438 C 20.011719 19.695312 20.441406 19.378906 20.667969 18.925781 Z M 25 10.265625 "/>
</g>
</svg>
