<?xml version="1.0" encoding="UTF-8"?>
<svg xmlns="http://www.w3.org/2000/svg" xmlns:xlink="http://www.w3.org/1999/xlink" width="50px" height="50px" viewBox="0 0 50 50" version="1.1">
<g id="surface1">
<path style=" stroke:none;fill-rule:nonzero;fill:rgb(58.823532%,58.823532%,58.823532%);fill-opacity:1;" d="M 13.019531 4.167969 C 10.449219 4.167969 8.332031 6.285156 8.332031 8.855469 L 8.332031 41.144531 C 8.332031 43.714844 10.449219 45.832031 13.019531 45.832031 L 36.980469 45.832031 C 39.550781 45.832031 41.667969 43.714844 41.667969 41.144531 L 41.667969 17.1875 C 41.667969 16.773438 41.5 16.375 41.207031 16.082031 L 29.75 4.625 C 29.457031 4.332031 29.058594 4.167969 28.644531 4.167969 Z M 13.019531 7.292969 L 27.082031 7.292969 L 27.082031 14.0625 C 27.082031 16.632812 29.199219 18.75 31.769531 18.75 L 38.542969 18.75 L 38.542969 41.144531 C 38.542969 42.027344 37.859375 42.707031 36.980469 42.707031 L 13.019531 42.707031 C 12.140625 42.707031 11.457031 42.027344 11.457031 41.144531 L 11.457031 8.855469 C 11.457031 7.972656 12.140625 7.292969 13.019531 7.292969 Z M 30.207031 9.5 L 36.332031 15.625 L 31.769531 15.625 C 30.890625 15.625 30.207031 14.945312 30.207031 14.0625 Z M 18.230469 22.917969 C 17.664062 22.910156 17.140625 23.203125 16.859375 23.691406 C 16.574219 24.179688 16.574219 24.78125 16.859375 25.265625 C 17.140625 25.753906 17.664062 26.050781 18.230469 26.042969 L 31.769531 26.042969 C 32.335938 26.050781 32.859375 25.753906 33.140625 25.265625 C 33.425781 24.78125 33.425781 24.179688 33.140625 23.691406 C 32.859375 23.203125 32.335938 22.910156 31.769531 22.917969 Z M 18.230469 29.167969 C 17.664062 29.160156 17.140625 29.453125 16.859375 29.941406 C 16.574219 30.429688 16.574219 31.03125 16.859375 31.515625 C 17.140625 32.003906 17.664062 32.300781 18.230469 32.292969 L 31.769531 32.292969 C 32.335938 32.300781 32.859375 32.003906 33.140625 31.515625 C 33.425781 31.03125 33.425781 30.429688 33.140625 29.941406 C 32.859375 29.453125 32.335938 29.160156 31.769531 29.167969 Z M 18.230469 35.417969 C 17.664062 35.410156 17.140625 35.703125 16.859375 36.191406 C 16.574219 36.679688 16.574219 37.28125 16.859375 37.765625 C 17.140625 38.253906 17.664062 38.550781 18.230469 38.542969 L 27.605469 38.542969 C 28.167969 38.550781 28.691406 38.253906 28.976562 37.765625 C 29.261719 37.28125 29.261719 36.679688 28.976562 36.191406 C 28.691406 35.703125 28.167969 35.410156 27.605469 35.417969 Z M 18.230469 35.417969 "/>
</g>
</svg>
