<?xml version="1.0" encoding="UTF-8"?>
<svg xmlns="http://www.w3.org/2000/svg" xmlns:xlink="http://www.w3.org/1999/xlink" width="50px" height="50px" viewBox="0 0 50 50" version="1.1">
<g id="surface1">
<path style=" stroke:none;fill-rule:nonzero;fill:rgb(80.392158%,91.37255%,89.019608%);fill-opacity:1;" d="M 32.007812 13.664062 C 31.078125 13.664062 30.328125 14.414062 30.328125 15.34375 L 30.328125 17.90625 L 12.636719 17.921875 L 12.636719 15.355469 C 12.636719 14.429688 13.390625 13.675781 14.316406 13.675781 L 14.40625 13.664062 Z M 32.007812 13.664062 "/>
<path style=" stroke:none;fill-rule:nonzero;fill:rgb(80.392158%,91.37255%,89.019608%);fill-opacity:1;" d="M 17.855469 37.023438 C 16.929688 37.023438 16.175781 36.269531 16.175781 35.34375 L 16.175781 15.347656 C 16.175781 14.417969 15.425781 13.667969 14.496094 13.667969 L 32.1875 13.667969 C 33.117188 13.667969 33.867188 14.417969 33.867188 15.347656 L 33.867188 32.777344 "/>
<path style=" stroke:none;fill-rule:nonzero;fill:rgb(80.392158%,91.37255%,89.019608%);fill-opacity:1;" d="M 18.03125 37.023438 C 18.960938 37.023438 19.710938 36.269531 19.710938 35.34375 L 19.710938 32.777344 L 37.402344 32.777344 L 37.402344 35.34375 C 37.402344 36.269531 36.648438 37.023438 35.722656 37.023438 Z M 18.03125 37.023438 "/>
<path style=" stroke:none;fill-rule:nonzero;fill:rgb(12.941177%,12.156863%,11.764706%);fill-opacity:1;" d="M 29.976562 17.910156 L 20.070312 17.910156 C 19.875 17.910156 19.71875 18.066406 19.71875 18.261719 C 19.71875 18.457031 19.875 18.613281 20.070312 18.613281 L 29.976562 18.613281 C 30.171875 18.613281 30.328125 18.457031 30.328125 18.261719 C 30.328125 18.066406 30.171875 17.910156 29.976562 17.910156 Z M 29.976562 20.035156 L 20.070312 20.035156 C 19.875 20.035156 19.71875 20.191406 19.71875 20.386719 C 19.71875 20.582031 19.875 20.738281 20.070312 20.738281 L 29.976562 20.738281 C 30.171875 20.738281 30.328125 20.582031 30.328125 20.386719 C 30.328125 20.191406 30.171875 20.035156 29.976562 20.035156 Z M 29.976562 22.15625 L 20.070312 22.15625 C 19.875 22.15625 19.71875 22.3125 19.71875 22.507812 C 19.71875 22.703125 19.875 22.859375 20.070312 22.859375 L 29.976562 22.859375 C 30.171875 22.859375 30.328125 22.703125 30.328125 22.507812 C 30.328125 22.3125 30.171875 22.15625 29.976562 22.15625 Z M 29.976562 24.277344 L 20.070312 24.277344 C 19.875 24.277344 19.71875 24.433594 19.71875 24.628906 C 19.71875 24.824219 19.875 24.980469 20.070312 24.980469 L 29.976562 24.980469 C 30.171875 24.980469 30.328125 24.824219 30.328125 24.628906 C 30.328125 24.4375 30.171875 24.277344 29.976562 24.277344 Z M 29.976562 26.402344 L 20.070312 26.402344 C 19.875 26.402344 19.71875 26.558594 19.71875 26.753906 C 19.71875 26.949219 19.875 27.105469 20.070312 27.105469 L 29.976562 27.105469 C 30.171875 27.105469 30.328125 26.949219 30.328125 26.753906 C 30.328125 26.5625 30.171875 26.402344 29.976562 26.402344 Z M 29.976562 28.527344 L 20.070312 28.527344 C 19.875 28.527344 19.71875 28.683594 19.71875 28.878906 C 19.71875 29.074219 19.875 29.230469 20.070312 29.230469 L 29.976562 29.230469 C 30.171875 29.230469 30.328125 29.074219 30.328125 28.878906 C 30.328125 28.683594 30.171875 28.527344 29.976562 28.527344 Z M 29.976562 28.527344 "/>
<path style=" stroke:none;fill-rule:nonzero;fill:rgb(12.941177%,12.156863%,11.764706%);fill-opacity:1;" d="M 37.402344 32.066406 L 34.570312 32.066406 L 34.570312 15.347656 C 34.570312 14.027344 33.5 12.960938 32.183594 12.960938 L 14.238281 12.960938 C 12.949219 12.992188 11.921875 14.066406 11.921875 15.363281 L 11.921875 17.925781 C 11.921875 18.109375 11.996094 18.289062 12.128906 18.429688 C 12.261719 18.558594 12.441406 18.632812 12.628906 18.632812 L 15.460938 18.632812 L 15.460938 35.34375 C 15.460938 36.660156 16.527344 37.730469 17.847656 37.730469 C 17.875 37.730469 17.90625 37.722656 17.933594 37.71875 C 17.964844 37.722656 17.992188 37.730469 18.023438 37.730469 L 35.71875 37.730469 C 37.035156 37.730469 38.105469 36.660156 38.105469 35.34375 L 38.105469 32.777344 C 38.109375 32.382812 37.796875 32.066406 37.402344 32.066406 Z M 13.34375 17.21875 L 13.34375 15.363281 C 13.34375 14.296875 14.460938 14.375 14.460938 14.375 L 14.496094 14.375 C 15.035156 14.375 15.46875 14.808594 15.46875 15.347656 L 15.46875 17.21875 Z M 19.003906 32.773438 L 19.003906 35.335938 C 19.003906 35.875 18.570312 36.308594 18.03125 36.308594 C 18.003906 36.308594 17.972656 36.3125 17.945312 36.320312 C 17.914062 36.3125 17.886719 36.308594 17.855469 36.308594 C 17.320312 36.308594 16.886719 35.875 16.886719 35.335938 L 16.886719 15.347656 C 16.886719 15 16.8125 14.671875 16.679688 14.375 L 32.1875 14.375 C 32.726562 14.375 33.160156 14.808594 33.160156 15.347656 L 33.160156 32.070312 L 19.710938 32.070312 C 19.320312 32.066406 19.003906 32.382812 19.003906 32.773438 Z M 36.695312 35.34375 C 36.695312 35.878906 36.257812 36.3125 35.722656 36.3125 L 20.210938 36.3125 C 20.34375 36.015625 20.414062 35.6875 20.414062 35.34375 L 20.414062 33.484375 L 36.695312 33.484375 Z M 36.695312 35.34375 "/>
</g>
</svg>
