<?xml version="1.0" encoding="UTF-8"?>
<svg xmlns="http://www.w3.org/2000/svg" xmlns:xlink="http://www.w3.org/1999/xlink" width="50px" height="50px" viewBox="0 0 50 50" version="1.1">
<g id="surface1">
<path style=" stroke:none;fill-rule:nonzero;fill:rgb(58.823532%,58.823532%,58.823532%);fill-opacity:1;" d="M 27.664062 0.417969 C 29.855469 5.699219 19.804688 8.960938 18.871094 13.359375 C 18.015625 17.40625 24.839844 22.101562 24.84375 22.101562 C 23.808594 20.433594 23.058594 19.050781 22.015625 16.441406 C 20.257812 12.039062 32.71875 8.0625 27.664062 0.417969 Z M 34.332031 7.734375 C 34.332031 7.734375 25.527344 8.316406 25.078125 14.1875 C 24.878906 16.800781 27.394531 18.191406 27.464844 20.097656 C 27.523438 21.652344 25.964844 22.941406 25.964844 22.941406 C 25.964844 22.941406 28.792969 22.386719 29.675781 20.019531 C 30.65625 17.390625 27.773438 15.589844 28.070312 13.484375 C 28.347656 11.472656 34.332031 7.734375 34.332031 7.734375 Z M 18.796875 22.941406 C 18.796875 22.941406 8.976562 22.773438 8.976562 25.761719 C 8.976562 28.878906 22.25 29.105469 31.734375 27.183594 C 31.734375 27.183594 34.269531 25.378906 34.941406 24.703125 C 28.730469 26.023438 14.542969 26.199219 14.542969 25.054688 C 14.542969 24 18.796875 22.941406 18.796875 22.941406 Z M 39.140625 23.042969 C 38 22.992188 36.726562 23.390625 35.578125 24.253906 C 37.835938 23.746094 39.742188 25.183594 39.742188 26.84375 C 39.742188 30.582031 34.5625 34.113281 34.5625 34.113281 C 34.5625 34.113281 42.582031 33.15625 42.582031 27.019531 C 42.582031 24.484375 41.042969 23.136719 39.140625 23.042969 Z M 16.671875 28.726562 C 15.109375 28.726562 12.792969 29.984375 12.792969 31.191406 C 12.792969 33.613281 24.511719 35.484375 33.179688 31.9375 L 30.179688 30.207031 C 24.296875 32.164062 13.464844 31.351562 16.671875 28.726562 Z M 18.113281 34.152344 C 15.980469 34.152344 14.597656 35.527344 14.597656 36.53125 C 14.597656 39.648438 27.328125 39.964844 32.371094 36.796875 L 29.167969 34.671875 C 25.398438 36.328125 15.933594 36.554688 18.113281 34.152344 Z M 11.210938 36.617188 C 7.738281 36.550781 5.480469 38.179688 5.480469 39.527344 C 5.480469 46.703125 41.0625 46.359375 41.0625 39.023438 C 41.0625 37.804688 39.6875 37.226562 39.195312 36.953125 C 42.101562 43.960938 10.085938 43.417969 10.085938 39.28125 C 10.085938 38.339844 12.441406 37.417969 14.621094 37.855469 L 12.769531 36.757812 C 12.226562 36.675781 11.707031 36.628906 11.210938 36.617188 Z M 44.609375 41.59375 C 39.203125 46.9375 25.488281 48.882812 11.699219 45.582031 C 25.488281 51.457031 44.546875 48.148438 44.609375 41.59375 Z M 44.609375 41.59375 "/>
</g>
</svg>
