<?xml version="1.0" encoding="UTF-8"?>
<svg xmlns="http://www.w3.org/2000/svg" xmlns:xlink="http://www.w3.org/1999/xlink" width="50px" height="50px" viewBox="0 0 50 50" version="1.1">
<defs>
<filter id="alpha" filterUnits="objectBoundingBox" x="0%" y="0%" width="100%" height="100%">
  <feColorMatrix type="matrix" in="SourceGraphic" values="0 0 0 0 1 0 0 0 0 1 0 0 0 0 1 0 0 0 1 0"/>
</filter>
<mask id="mask0">
  <g filter="url(#alpha)">
<rect x="0" y="0" width="50" height="50" style="fill:rgb(0%,0%,0%);fill-opacity:0.6;stroke:none;"/>
  </g>
</mask>
<clipPath id="clip1">
  <rect x="0" y="0" width="50" height="50"/>
</clipPath>
<g id="surface5" clip-path="url(#clip1)">
<path style=" stroke:none;fill-rule:nonzero;fill:rgb(10.980392%,15.294118%,29.803923%);fill-opacity:1;" d="M 31.25 4.167969 L 29.167969 4.167969 C 23.273438 4.167969 20.328125 4.167969 18.496094 5.996094 C 16.667969 7.828125 16.667969 10.773438 16.667969 16.667969 L 16.667969 33.332031 C 16.667969 39.226562 16.667969 42.171875 18.496094 44.003906 C 20.328125 45.832031 23.273438 45.832031 29.167969 45.832031 L 31.25 45.832031 C 37.140625 45.832031 40.089844 45.832031 41.917969 44.003906 C 43.75 42.171875 43.75 39.226562 43.75 33.332031 L 43.75 16.667969 C 43.75 10.773438 43.75 7.828125 41.917969 5.996094 C 40.089844 4.167969 37.140625 4.167969 31.25 4.167969 Z M 31.25 4.167969 "/>
</g>
<mask id="mask1">
  <g filter="url(#alpha)">
<rect x="0" y="0" width="50" height="50" style="fill:rgb(0%,0%,0%);fill-opacity:0.4;stroke:none;"/>
  </g>
</mask>
<clipPath id="clip2">
  <rect x="0" y="0" width="50" height="50"/>
</clipPath>
<g id="surface8" clip-path="url(#clip2)">
<path style=" stroke:none;fill-rule:nonzero;fill:rgb(10.980392%,15.294118%,29.803923%);fill-opacity:1;" d="M 16.667969 16.667969 C 16.667969 13.464844 16.667969 11.132812 16.960938 9.375 L 16.667969 9.375 C 11.757812 9.375 9.300781 9.375 7.777344 10.902344 C 6.25 12.425781 6.25 14.882812 6.25 19.792969 L 6.25 30.207031 C 6.25 35.117188 6.25 37.574219 7.777344 39.097656 C 9.300781 40.625 11.757812 40.625 16.667969 40.625 L 16.960938 40.625 C 16.667969 38.867188 16.667969 36.535156 16.667969 33.332031 Z M 16.667969 16.667969 "/>
</g>
</defs>
<g id="surface1">
<use xlink:href="#surface5" mask="url(#mask0)"/>
<use xlink:href="#surface8" mask="url(#mask1)"/>
<path style=" stroke:none;fill-rule:evenodd;fill:rgb(10.980392%,15.294118%,29.803923%);fill-opacity:1;" d="M 9.3125 23.894531 C 8.703125 24.503906 8.703125 25.496094 9.3125 26.105469 L 13.476562 30.269531 C 14.089844 30.882812 15.078125 30.882812 15.6875 30.269531 C 16.296875 29.660156 16.296875 28.671875 15.6875 28.0625 L 14.1875 26.5625 L 29.167969 26.5625 C 30.03125 26.5625 30.730469 25.863281 30.730469 25 C 30.730469 24.136719 30.03125 23.4375 29.167969 23.4375 L 14.1875 23.4375 L 15.6875 21.9375 C 16.296875 21.328125 16.296875 20.339844 15.6875 19.726562 C 15.078125 19.117188 14.089844 19.117188 13.476562 19.726562 Z M 9.3125 23.894531 "/>
</g>
</svg>
