<?xml version="1.0" encoding="UTF-8"?>
<svg xmlns="http://www.w3.org/2000/svg" xmlns:xlink="http://www.w3.org/1999/xlink" width="50px" height="50px" viewBox="0 0 50 50" version="1.1">
<g id="surface1">
<path style=" stroke:none;fill-rule:nonzero;fill:rgb(58.823532%,58.823532%,58.823532%);fill-opacity:1;" d="M 20.3125 6.25 C 17.351562 6.25 14.96875 8.566406 14.6875 11.457031 L 11.980469 11.457031 C 8.832031 11.457031 6.25 14.042969 6.25 17.1875 L 6.25 38.019531 C 6.25 41.167969 8.832031 43.75 11.980469 43.75 L 29.6875 43.75 C 32.648438 43.75 35.03125 41.433594 35.3125 38.542969 L 38.019531 38.542969 C 41.167969 38.542969 43.75 35.957031 43.75 32.8125 L 43.75 11.980469 C 43.75 8.832031 41.167969 6.25 38.019531 6.25 Z M 20.3125 9.375 L 38.019531 9.375 C 39.476562 9.375 40.625 10.523438 40.625 11.980469 L 40.625 32.8125 C 40.625 34.269531 39.476562 35.417969 38.019531 35.417969 L 33.855469 35.417969 C 32.992188 35.417969 32.292969 36.117188 32.292969 36.980469 L 32.292969 38.019531 C 32.292969 39.476562 31.144531 40.625 29.6875 40.625 L 11.980469 40.625 C 10.523438 40.625 9.375 39.476562 9.375 38.019531 L 9.375 17.1875 C 9.375 15.730469 10.523438 14.582031 11.980469 14.582031 L 16.144531 14.582031 C 17.007812 14.582031 17.707031 13.882812 17.707031 13.019531 L 17.707031 11.980469 C 17.707031 10.523438 18.855469 9.375 20.3125 9.375 Z M 19.269531 14.582031 C 18.40625 14.582031 17.707031 15.28125 17.707031 16.144531 C 17.707031 17.007812 18.40625 17.707031 19.269531 17.707031 C 20.132812 17.707031 20.832031 17.007812 20.832031 16.144531 C 20.832031 15.28125 20.132812 14.582031 19.269531 14.582031 Z M 31.308594 15.628906 C 31.191406 15.640625 31.074219 15.671875 30.960938 15.71875 C 30.503906 15.90625 30.207031 16.351562 30.207031 16.839844 L 30.207031 21.699219 C 30.207031 22.191406 30.503906 22.636719 30.960938 22.824219 C 31.109375 22.886719 31.265625 22.917969 31.421875 22.917969 C 31.738281 22.917969 32.050781 22.792969 32.28125 22.5625 L 34.710938 20.128906 C 35.1875 19.65625 35.1875 18.886719 34.710938 18.414062 L 32.28125 15.980469 C 32.019531 15.71875 31.664062 15.59375 31.308594 15.628906 Z M 22.394531 18.75 C 21.53125 18.75 20.832031 19.449219 20.832031 20.3125 C 20.832031 21.175781 21.53125 21.875 22.394531 21.875 C 23.257812 21.875 23.957031 21.175781 23.957031 20.3125 C 23.957031 19.449219 23.257812 18.75 22.394531 18.75 Z M 25.519531 22.917969 C 24.65625 22.917969 23.957031 23.617188 23.957031 24.480469 C 23.957031 25.34375 24.65625 26.042969 25.519531 26.042969 C 26.382812 26.042969 27.082031 25.34375 27.082031 24.480469 C 27.082031 23.617188 26.382812 22.917969 25.519531 22.917969 Z M 18.578125 27.082031 C 18.261719 27.082031 17.949219 27.207031 17.71875 27.4375 L 15.289062 29.871094 C 14.8125 30.34375 14.8125 31.113281 15.289062 31.585938 L 17.71875 34.019531 C 18.066406 34.367188 18.585938 34.472656 19.039062 34.28125 C 19.496094 34.09375 19.792969 33.648438 19.792969 33.160156 L 19.792969 28.300781 C 19.792969 27.808594 19.496094 27.363281 19.039062 27.175781 C 18.890625 27.113281 18.734375 27.082031 18.578125 27.082031 Z M 28.644531 27.082031 C 27.78125 27.082031 27.082031 27.78125 27.082031 28.644531 C 27.082031 29.507812 27.78125 30.207031 28.644531 30.207031 C 29.507812 30.207031 30.207031 29.507812 30.207031 28.644531 C 30.207031 27.78125 29.507812 27.082031 28.644531 27.082031 Z M 31.769531 31.25 C 30.90625 31.25 30.207031 31.949219 30.207031 32.8125 C 30.207031 33.675781 30.90625 34.375 31.769531 34.375 C 32.632812 34.375 33.332031 33.675781 33.332031 32.8125 C 33.332031 31.949219 32.632812 31.25 31.769531 31.25 Z M 31.769531 31.25 "/>
</g>
</svg>
