<?xml version="1.0" encoding="UTF-8"?>
<svg xmlns="http://www.w3.org/2000/svg" xmlns:xlink="http://www.w3.org/1999/xlink" width="50px" height="50px" viewBox="0 0 50 50" version="1.1">
<g id="surface1">
<path style=" stroke:none;fill-rule:nonzero;fill:rgb(58.823532%,58.823532%,58.823532%);fill-opacity:1;" d="M 27.589844 9.359375 C 26.953125 9.359375 26.378906 9.746094 26.140625 10.335938 C 25.902344 10.921875 26.042969 11.597656 26.5 12.042969 L 38.414062 23.957031 L 7.8125 23.957031 C 7.25 23.949219 6.726562 24.246094 6.441406 24.734375 C 6.15625 25.21875 6.15625 25.820312 6.441406 26.308594 C 6.726562 26.796875 7.25 27.089844 7.8125 27.082031 L 38.414062 27.082031 L 26.5 39 C 26.089844 39.390625 25.925781 39.972656 26.070312 40.519531 C 26.210938 41.070312 26.640625 41.496094 27.1875 41.640625 C 27.734375 41.78125 28.316406 41.617188 28.707031 41.207031 L 43.292969 26.625 C 43.902344 26.015625 43.902344 25.027344 43.292969 24.417969 L 28.707031 9.832031 C 28.414062 9.53125 28.011719 9.359375 27.589844 9.359375 Z M 27.589844 9.359375 "/>
</g>
</svg>
