<?xml version="1.0" encoding="UTF-8"?>
<svg xmlns="http://www.w3.org/2000/svg" xmlns:xlink="http://www.w3.org/1999/xlink" width="50px" height="50px" viewBox="0 0 50 50" version="1.1">
<g id="surface1">
<path style=" stroke:none;fill-rule:nonzero;fill:rgb(58.823532%,58.823532%,58.823532%);fill-opacity:1;" d="M 39.039062 6.226562 C 38.175781 6.242188 37.488281 6.949219 37.5 7.8125 L 37.5 11.046875 C 34.183594 8.070312 29.800781 6.25 25 6.25 C 14.664062 6.25 6.25 14.664062 6.25 25 C 6.25 35.335938 14.664062 43.75 25 43.75 C 35.335938 43.75 43.75 35.335938 43.75 25 C 43.75 24.011719 43.652344 23.0625 43.515625 22.160156 C 43.441406 21.597656 43.070312 21.117188 42.542969 20.90625 C 42.015625 20.695312 41.417969 20.785156 40.976562 21.144531 C 40.535156 21.503906 40.324219 22.074219 40.425781 22.632812 C 40.546875 23.429688 40.625 24.214844 40.625 25 C 40.625 33.648438 33.648438 40.625 25 40.625 C 16.351562 40.625 9.375 33.648438 9.375 25 C 9.375 16.351562 16.351562 9.375 25 9.375 C 29.097656 9.375 32.792969 10.964844 35.574219 13.542969 L 31.769531 13.542969 C 31.207031 13.535156 30.683594 13.828125 30.398438 14.316406 C 30.113281 14.804688 30.113281 15.40625 30.398438 15.890625 C 30.683594 16.378906 31.207031 16.675781 31.769531 16.667969 L 39.0625 16.667969 C 39.144531 16.664062 39.179688 16.660156 39.21875 16.660156 C 39.265625 16.652344 39.3125 16.648438 39.359375 16.636719 C 39.398438 16.628906 39.441406 16.621094 39.480469 16.609375 C 39.609375 16.566406 39.640625 16.554688 39.671875 16.542969 C 39.714844 16.523438 39.757812 16.503906 39.800781 16.480469 C 39.851562 16.453125 39.894531 16.429688 39.933594 16.402344 C 39.984375 16.367188 40.019531 16.339844 40.058594 16.308594 C 40.105469 16.269531 40.140625 16.234375 40.171875 16.203125 C 40.214844 16.160156 40.246094 16.125 40.277344 16.085938 C 40.335938 16.011719 40.355469 15.980469 40.375 15.949219 C 40.40625 15.90625 40.429688 15.859375 40.453125 15.8125 C 40.476562 15.769531 40.496094 15.726562 40.511719 15.683594 C 40.535156 15.625 40.550781 15.582031 40.5625 15.535156 C 40.582031 15.476562 40.59375 15.429688 40.601562 15.382812 C 40.613281 15.308594 40.617188 15.261719 40.621094 15.214844 L 40.625 15.074219 L 40.625 7.8125 C 40.632812 7.390625 40.464844 6.984375 40.167969 6.683594 C 39.867188 6.386719 39.460938 6.222656 39.039062 6.226562 Z M 39.039062 6.226562 "/>
</g>
</svg>
