<?xml version="1.0" encoding="UTF-8"?>
<svg xmlns="http://www.w3.org/2000/svg" xmlns:xlink="http://www.w3.org/1999/xlink" width="50px" height="50px" viewBox="0 0 50 50" version="1.1">
<g id="surface1">
<path style=" stroke:none;fill-rule:nonzero;fill:rgb(72.156864%,54.509807%,20.392157%);fill-opacity:1;" d="M 49.167969 48.75 L 0.832031 48.75 L 0.832031 46.25 C 0.832031 45.328125 1.578125 44.582031 2.5 44.582031 L 47.5 44.582031 C 48.421875 44.582031 49.167969 45.328125 49.167969 46.25 Z M 49.167969 48.75 "/>
<path style=" stroke:none;fill-rule:nonzero;fill:rgb(85.09804%,26.666668%,32.156864%);fill-opacity:1;" d="M 40.832031 9.582031 L 49.167969 9.582031 L 49.167969 24.582031 L 40.832031 24.582031 Z M 40.832031 9.582031 "/>
<path style=" stroke:none;fill-rule:nonzero;fill:rgb(90.980393%,56.078434%,59.215689%);fill-opacity:1;" d="M 10.25 17.703125 L 22.292969 9.449219 C 22.46875 9.328125 22.683594 9.28125 22.890625 9.3125 L 35.347656 11.25 L 40.832031 11.25 L 40.832031 22.5 L 33.277344 21.945312 L 27.710938 25.316406 C 27.089844 25.691406 26.296875 25.621094 25.75 25.140625 L 25.5 24.921875 C 24.777344 24.289062 24.742188 23.171875 25.421875 22.492188 L 28.472656 19.445312 L 21.886719 17.246094 L 11.667969 22.148438 C 10.371094 22.769531 8.949219 21.574219 9.34375 20.191406 L 9.917969 18.164062 C 9.972656 17.976562 10.085938 17.816406 10.25 17.703125 Z M 10.25 17.703125 "/>
<path style=" stroke:none;fill-rule:nonzero;fill:rgb(0%,0%,0%);fill-opacity:1;" d="M 49.167969 8.75 L 40.832031 8.75 C 40.371094 8.75 40 9.125 40 9.582031 L 40 10.417969 L 35.410156 10.417969 L 23.019531 8.488281 C 22.597656 8.425781 22.171875 8.554688 21.820312 8.792969 L 9.777344 17.082031 C 9.457031 17.082031 9.222656 17.597656 9.117188 17.96875 L 8.539062 19.980469 C 8.269531 20.941406 8.574219 21.925781 9.335938 22.566406 C 10.097656 23.210938 11.128906 23.335938 12.027344 22.90625 L 21.945312 18.144531 L 26.929688 19.808594 L 24.832031 21.902344 C 24.347656 22.390625 24.082031 23.0625 24.101562 23.75 C 24.125 24.4375 24.433594 25.09375 24.953125 25.550781 L 25.199219 25.765625 C 25.667969 26.179688 26.253906 26.390625 26.847656 26.390625 C 27.292969 26.390625 27.742188 26.269531 28.144531 26.027344 L 33.484375 22.792969 L 40 23.273438 L 40 24.582031 C 40 25.042969 40.371094 25.417969 40.832031 25.417969 L 49.167969 25.417969 C 49.628906 25.417969 50 25.042969 50 24.582031 L 50 9.582031 C 50 9.125 49.628906 8.75 49.167969 8.75 Z M 33.339844 21.113281 C 33.164062 21.101562 32.996094 21.140625 32.847656 21.230469 L 27.28125 24.601562 C 26.96875 24.789062 26.574219 24.757812 26.296875 24.515625 L 26.050781 24.296875 C 25.875 24.144531 25.777344 23.933594 25.769531 23.699219 C 25.761719 23.464844 25.847656 23.246094 26.011719 23.082031 L 29.0625 20.035156 C 29.265625 19.832031 29.347656 19.535156 29.285156 19.253906 C 29.214844 18.972656 29.011719 18.746094 28.738281 18.65625 L 22.152344 16.453125 C 22.066406 16.425781 21.976562 16.410156 21.886719 16.410156 C 21.765625 16.410156 21.640625 16.4375 21.527344 16.496094 L 11.304688 21.398438 C 10.855469 21.613281 10.503906 21.367188 10.410156 21.285156 C 10.3125 21.203125 10.0625 20.902344 10.199219 20.421875 L 10.832031 18.390625 L 22.820312 10.136719 L 35.25 12.074219 C 35.289062 12.078125 35.304688 12.082031 35.347656 12.082031 L 40 12.082031 L 40 21.601562 Z M 48.332031 23.75 L 41.667969 23.75 L 41.667969 10.417969 L 48.332031 10.417969 Z M 48.332031 23.75 "/>
<path style=" stroke:none;fill-rule:nonzero;fill:rgb(97.647059%,83.529413%,56.078434%);fill-opacity:1;" d="M 28.332031 41.25 L 6.667969 41.25 L 6.667969 39.582031 C 6.667969 38.664062 7.550781 37.917969 8.472656 37.917969 L 26.804688 37.917969 C 27.726562 37.917969 28.332031 38.664062 28.332031 39.582031 Z M 28.332031 41.25 "/>
<path style=" stroke:none;fill-rule:nonzero;fill:rgb(99.215686%,94.509804%,85.490197%);fill-opacity:1;" d="M 30.832031 44.582031 L 4.167969 44.582031 L 4.167969 42.917969 C 4.167969 41.996094 5.050781 41.25 5.972656 41.25 L 29.304688 41.25 C 30.226562 41.25 30.832031 41.996094 30.832031 42.917969 Z M 30.832031 44.582031 "/>
<path style=" stroke:none;fill-rule:nonzero;fill:rgb(0%,0%,0%);fill-opacity:1;" d="M 30.832031 45.417969 L 4.167969 45.417969 C 3.707031 45.417969 3.332031 45.042969 3.332031 44.582031 L 3.332031 42.917969 C 3.332031 41.5625 4.542969 40.417969 5.972656 40.417969 L 29.304688 40.417969 C 30.652344 40.417969 31.667969 41.492188 31.667969 42.917969 L 31.667969 44.582031 C 31.667969 45.042969 31.292969 45.417969 30.832031 45.417969 Z M 5 43.75 L 30 43.75 L 30 42.917969 C 30 42.5 29.785156 42.082031 29.304688 42.082031 L 5.972656 42.082031 C 5.480469 42.082031 5 42.496094 5 42.917969 Z M 5 43.75 "/>
<path style=" stroke:none;fill-rule:nonzero;fill:rgb(96.078432%,72.549021%,27.058825%);fill-opacity:1;" d="M 25.832031 37.917969 L 9.167969 37.917969 L 9.167969 33.75 C 9.167969 30.988281 11.542969 28.75 14.304688 28.75 L 20.972656 28.75 C 23.734375 28.75 25.832031 30.988281 25.832031 33.75 Z M 25.832031 37.917969 "/>
<path style=" stroke:none;fill-rule:nonzero;fill:rgb(0%,0%,0%);fill-opacity:1;" d="M 47.5 43.75 L 31.667969 43.75 L 31.667969 42.917969 C 31.667969 41.492188 30.652344 40.417969 29.304688 40.417969 L 29.167969 40.417969 L 29.167969 39.582031 C 29.167969 38.160156 28.152344 37.082031 26.804688 37.082031 L 26.667969 37.082031 L 26.667969 33.75 C 26.667969 30.480469 24.164062 27.917969 20.972656 27.917969 L 18.332031 27.917969 L 18.332031 26.25 C 18.332031 25.789062 17.960938 25.417969 17.5 25.417969 C 17.039062 25.417969 16.667969 25.789062 16.667969 26.25 L 16.667969 27.917969 L 14.304688 27.917969 C 11.066406 27.917969 8.332031 30.589844 8.332031 33.75 L 8.332031 37.097656 C 6.964844 37.167969 5.832031 38.273438 5.832031 39.582031 L 5.832031 40.429688 C 4.464844 40.503906 3.332031 41.605469 3.332031 42.917969 L 3.332031 43.75 L 2.5 43.75 C 1.121094 43.75 0 44.871094 0 46.25 L 0 48.75 C 0 49.210938 0.375 49.582031 0.832031 49.582031 L 49.167969 49.582031 C 49.628906 49.582031 50 49.210938 50 48.75 L 50 46.25 C 50 44.871094 48.878906 43.75 47.5 43.75 Z M 10 33.75 C 10 31.492188 11.972656 29.582031 14.304688 29.582031 L 20.972656 29.582031 C 23.230469 29.582031 25 31.414062 25 33.75 L 25 37.082031 L 10 37.082031 Z M 7.5 39.582031 C 7.5 39.164062 7.980469 38.75 8.472656 38.75 L 26.804688 38.75 C 27.285156 38.75 27.5 39.167969 27.5 39.582031 L 27.5 40.417969 L 7.5 40.417969 Z M 5 42.917969 C 5 42.496094 5.480469 42.082031 5.972656 42.082031 L 29.304688 42.082031 C 29.785156 42.082031 30 42.5 30 42.917969 L 30 43.75 L 5 43.75 Z M 48.332031 47.917969 L 1.667969 47.917969 L 1.667969 46.25 C 1.667969 45.789062 2.039062 45.417969 2.5 45.417969 L 47.5 45.417969 C 47.960938 45.417969 48.332031 45.789062 48.332031 46.25 Z M 48.332031 47.917969 "/>
<path style=" stroke:none;fill-rule:nonzero;fill:rgb(100%,100%,100%);fill-opacity:1;" d="M 14.167969 32.917969 L 13.332031 32.917969 C 12.875 32.917969 12.5 32.542969 12.5 32.082031 C 12.5 31.625 12.875 31.25 13.332031 31.25 L 14.167969 31.25 C 14.625 31.25 15 31.625 15 32.082031 C 15 32.542969 14.625 32.917969 14.167969 32.917969 Z M 14.167969 32.917969 "/>
<path style=" stroke:none;fill-rule:nonzero;fill:rgb(0%,0%,0%);fill-opacity:1;" d="M 6.667969 4.417969 C 6.207031 4.417969 5.832031 4.042969 5.832031 3.582031 L 5.832031 1.25 C 5.832031 0.789062 6.207031 0.417969 6.667969 0.417969 C 7.125 0.417969 7.5 0.789062 7.5 1.25 L 7.5 3.582031 C 7.5 4.042969 7.125 4.417969 6.667969 4.417969 Z M 6.667969 4.417969 "/>
<path style=" stroke:none;fill-rule:nonzero;fill:rgb(0%,0%,0%);fill-opacity:1;" d="M 6.667969 13.75 C 6.207031 13.75 5.832031 13.375 5.832031 12.917969 L 5.832031 10.582031 C 5.832031 10.125 6.207031 9.75 6.667969 9.75 C 7.125 9.75 7.5 10.125 7.5 10.582031 L 7.5 12.917969 C 7.5 13.375 7.125 13.75 6.667969 13.75 Z M 6.667969 13.75 "/>
<path style=" stroke:none;fill-rule:nonzero;fill:rgb(0%,0%,0%);fill-opacity:1;" d="M 12.5 7.917969 L 10.167969 7.917969 C 9.707031 7.917969 9.332031 7.542969 9.332031 7.082031 C 9.332031 6.625 9.707031 6.25 10.167969 6.25 L 12.5 6.25 C 12.960938 6.25 13.332031 6.625 13.332031 7.082031 C 13.332031 7.542969 12.960938 7.917969 12.5 7.917969 Z M 12.5 7.917969 "/>
<path style=" stroke:none;fill-rule:nonzero;fill:rgb(0%,0%,0%);fill-opacity:1;" d="M 3.167969 7.917969 L 0.832031 7.917969 C 0.375 7.917969 0 7.542969 0 7.082031 C 0 6.625 0.375 6.25 0.832031 6.25 L 3.167969 6.25 C 3.625 6.25 4 6.625 4 7.082031 C 4 7.542969 3.625 7.917969 3.167969 7.917969 Z M 3.167969 7.917969 "/>
<path style=" stroke:none;fill-rule:nonzero;fill:rgb(0%,0%,0%);fill-opacity:1;" d="M 10.792969 12.042969 C 10.578125 12.042969 10.363281 11.960938 10.203125 11.796875 L 8.550781 10.148438 C 8.226562 9.820312 8.226562 9.296875 8.550781 8.96875 C 8.878906 8.644531 9.40625 8.644531 9.730469 8.96875 L 11.378906 10.621094 C 11.707031 10.945312 11.707031 11.472656 11.378906 11.796875 C 11.21875 11.960938 11.003906 12.042969 10.792969 12.042969 Z M 10.792969 12.042969 "/>
<path style=" stroke:none;fill-rule:nonzero;fill:rgb(0%,0%,0%);fill-opacity:1;" d="M 4.191406 5.441406 C 3.976562 5.441406 3.765625 5.359375 3.601562 5.199219 L 1.953125 3.546875 C 1.625 3.222656 1.625 2.695312 1.953125 2.371094 C 2.277344 2.042969 2.804688 2.042969 3.128906 2.371094 L 4.78125 4.019531 C 5.105469 4.34375 5.105469 4.871094 4.78125 5.199219 C 4.617188 5.359375 4.40625 5.441406 4.191406 5.441406 Z M 4.191406 5.441406 "/>
<path style=" stroke:none;fill-rule:nonzero;fill:rgb(0%,0%,0%);fill-opacity:1;" d="M 2.542969 12.042969 C 2.328125 12.042969 2.113281 11.960938 1.953125 11.796875 C 1.625 11.472656 1.625 10.945312 1.953125 10.621094 L 3.601562 8.96875 C 3.929688 8.644531 4.453125 8.644531 4.78125 8.96875 C 5.105469 9.296875 5.105469 9.820312 4.78125 10.148438 L 3.128906 11.796875 C 2.96875 11.960938 2.753906 12.042969 2.542969 12.042969 Z M 2.542969 12.042969 "/>
<path style=" stroke:none;fill-rule:nonzero;fill:rgb(0%,0%,0%);fill-opacity:1;" d="M 9.140625 5.441406 C 8.929688 5.441406 8.714844 5.359375 8.550781 5.199219 C 8.226562 4.871094 8.226562 4.34375 8.550781 4.019531 L 10.203125 2.371094 C 10.527344 2.042969 11.054688 2.042969 11.378906 2.371094 C 11.707031 2.695312 11.707031 3.222656 11.378906 3.546875 L 9.730469 5.199219 C 9.566406 5.359375 9.355469 5.441406 9.140625 5.441406 Z M 9.140625 5.441406 "/>
<path style=" stroke:none;fill-rule:nonzero;fill:rgb(0%,0%,0%);fill-opacity:1;" d="M 35.832031 39.582031 C 35.371094 39.582031 35 39.210938 35 38.75 L 35 36.445312 C 35 35.984375 35.371094 35.613281 35.832031 35.613281 C 36.292969 35.613281 36.667969 35.984375 36.667969 36.445312 L 36.667969 38.75 C 36.667969 39.210938 36.292969 39.582031 35.832031 39.582031 Z M 35.832031 39.582031 "/>
<path style=" stroke:none;fill-rule:nonzero;fill:rgb(0%,0%,0%);fill-opacity:1;" d="M 42.5 33.75 L 40 33.75 C 39.539062 33.75 39.167969 33.375 39.167969 32.917969 C 39.167969 32.457031 39.539062 32.082031 40 32.082031 L 42.5 32.082031 C 42.960938 32.082031 43.332031 32.457031 43.332031 32.917969 C 43.332031 33.375 42.960938 33.75 42.5 33.75 Z M 42.5 33.75 "/>
<path style=" stroke:none;fill-rule:nonzero;fill:rgb(0%,0%,0%);fill-opacity:1;" d="M 40 37.917969 C 39.796875 37.917969 39.597656 37.84375 39.433594 37.695312 L 37.667969 36.066406 C 37.328125 35.753906 37.308594 35.226562 37.621094 34.886719 C 37.933594 34.550781 38.460938 34.527344 38.796875 34.839844 L 40.5625 36.46875 C 40.902344 36.78125 40.925781 37.308594 40.613281 37.648438 C 40.449219 37.828125 40.226562 37.917969 40 37.917969 Z M 40 37.917969 "/>
<path style=" stroke:none;fill-rule:nonzero;fill:rgb(0%,0%,0%);fill-opacity:1;" d="M 38.234375 31.25 C 38.007812 31.25 37.785156 31.160156 37.621094 30.980469 C 37.308594 30.644531 37.328125 30.117188 37.667969 29.804688 L 39.4375 28.175781 C 39.773438 27.863281 40.300781 27.882812 40.613281 28.222656 C 40.925781 28.5625 40.902344 29.089844 40.566406 29.398438 L 38.796875 31.03125 C 38.636719 31.175781 38.433594 31.25 38.234375 31.25 Z M 38.234375 31.25 "/>
</g>
</svg>
