<?xml version="1.0" encoding="UTF-8"?>
<svg xmlns="http://www.w3.org/2000/svg" xmlns:xlink="http://www.w3.org/1999/xlink" width="50px" height="50px" viewBox="0 0 50 50" version="1.1">
<g id="surface1">
<path style=" stroke:none;fill-rule:nonzero;fill:rgb(58.823532%,58.823532%,58.823532%);fill-opacity:1;" d="M 21.355469 6.25 C 13.03125 6.25 6.25 13.03125 6.25 21.355469 C 6.25 29.675781 13.03125 36.457031 21.355469 36.457031 C 24.953125 36.457031 28.265625 35.1875 30.863281 33.074219 L 41.082031 43.292969 C 41.476562 43.699219 42.054688 43.863281 42.605469 43.722656 C 43.152344 43.578125 43.578125 43.152344 43.722656 42.605469 C 43.863281 42.054688 43.699219 41.476562 43.292969 41.082031 L 33.074219 30.863281 C 35.1875 28.265625 36.457031 24.953125 36.457031 21.355469 C 36.457031 13.03125 29.675781 6.25 21.355469 6.25 Z M 21.355469 9.375 C 27.988281 9.375 33.332031 14.71875 33.332031 21.355469 C 33.332031 24.585938 32.058594 27.507812 29.992188 29.65625 C 29.863281 29.75 29.75 29.863281 29.65625 29.992188 C 27.507812 32.058594 24.585938 33.332031 21.355469 33.332031 C 14.71875 33.332031 9.375 27.988281 9.375 21.355469 C 9.375 14.71875 14.71875 9.375 21.355469 9.375 Z M 21.355469 9.375 "/>
</g>
</svg>
