<?xml version="1.0" encoding="UTF-8"?>
<svg xmlns="http://www.w3.org/2000/svg" xmlns:xlink="http://www.w3.org/1999/xlink" width="50px" height="50px" viewBox="0 0 50 50" version="1.1">
<g id="surface1">
<path style=" stroke:none;fill-rule:nonzero;fill:rgb(58.823532%,58.823532%,58.823532%);fill-opacity:1;" d="M 25.023438 1.042969 C 24.605469 1.035156 24.203125 1.195312 23.902344 1.492188 C 23.605469 1.785156 23.4375 2.183594 23.4375 2.605469 L 23.4375 11.457031 L 13.019531 11.457031 C 12.566406 11.457031 12.136719 11.652344 11.839844 11.996094 L 1.425781 23.976562 C 1.023438 24.4375 0.925781 25.089844 1.183594 25.648438 C 1.4375 26.207031 1.992188 26.5625 2.605469 26.5625 L 11.457031 26.5625 L 11.457031 36.980469 C 11.457031 37.433594 11.652344 37.863281 11.996094 38.160156 L 23.976562 48.574219 C 24.4375 48.976562 25.089844 49.074219 25.648438 48.816406 C 26.207031 48.5625 26.5625 48.007812 26.5625 47.394531 L 26.5625 38.542969 L 36.980469 38.542969 C 37.433594 38.542969 37.863281 38.347656 38.160156 38.003906 L 48.574219 26.027344 C 48.976562 25.5625 49.074219 24.910156 48.816406 24.351562 C 48.5625 23.792969 48.007812 23.4375 47.394531 23.4375 L 38.542969 23.4375 L 38.542969 13.019531 C 38.542969 12.566406 38.347656 12.136719 38.003906 11.839844 L 26.027344 1.425781 C 25.746094 1.183594 25.394531 1.046875 25.023438 1.042969 Z M 26.5625 6.035156 L 34.691406 13.101562 L 27.605469 20.1875 L 26.5625 19.144531 Z M 16.792969 14.582031 L 23.4375 14.582031 L 23.4375 19.144531 L 22.394531 20.1875 Z M 13.101562 15.308594 L 20.1875 22.394531 L 19.144531 23.4375 L 6.035156 23.4375 Z M 35.417969 16.792969 L 35.417969 23.4375 L 30.855469 23.4375 L 29.8125 22.394531 Z M 25 22 L 28 25 L 25 28 L 22 25 Z M 14.582031 26.5625 L 19.144531 26.5625 L 20.1875 27.605469 L 14.582031 33.207031 Z M 30.855469 26.5625 L 43.964844 26.5625 L 36.898438 34.691406 L 29.8125 27.605469 Z M 22.394531 29.8125 L 23.4375 30.855469 L 23.4375 43.964844 L 15.308594 36.898438 Z M 27.605469 29.8125 L 33.207031 35.417969 L 26.5625 35.417969 L 26.5625 30.855469 Z M 27.605469 29.8125 "/>
</g>
</svg>
