<?xml version="1.0" encoding="UTF-8"?>
<svg xmlns="http://www.w3.org/2000/svg" xmlns:xlink="http://www.w3.org/1999/xlink" width="50px" height="50px" viewBox="0 0 50 50" version="1.1">
<g id="surface1">
<path style=" stroke:none;fill-rule:nonzero;fill:rgb(58.823532%,58.823532%,58.823532%);fill-opacity:1;" d="M 22.367188 9.359375 C 21.960938 9.371094 21.574219 9.542969 21.292969 9.832031 L 6.707031 24.417969 C 6.097656 25.027344 6.097656 26.015625 6.707031 26.625 L 21.292969 41.207031 C 21.683594 41.617188 22.265625 41.78125 22.8125 41.640625 C 23.359375 41.496094 23.789062 41.070312 23.929688 40.519531 C 24.074219 39.972656 23.910156 39.390625 23.5 39 L 11.585938 27.082031 L 42.1875 27.082031 C 42.75 27.089844 43.273438 26.796875 43.558594 26.308594 C 43.84375 25.820312 43.84375 25.21875 43.558594 24.734375 C 43.273438 24.246094 42.75 23.949219 42.1875 23.957031 L 11.585938 23.957031 L 23.5 12.042969 C 23.960938 11.59375 24.101562 10.90625 23.847656 10.3125 C 23.597656 9.71875 23.007812 9.34375 22.367188 9.359375 Z M 22.367188 9.359375 "/>
</g>
</svg>
