<?xml version="1.0" encoding="UTF-8"?>
<svg xmlns="http://www.w3.org/2000/svg" xmlns:xlink="http://www.w3.org/1999/xlink" width="50px" height="50px" viewBox="0 0 50 50" version="1.1">
<g id="surface1">
<path style=" stroke:none;fill-rule:nonzero;fill:rgb(12.941177%,58.823532%,95.294118%);fill-opacity:1;" d="M 38.542969 41.667969 L 11.457031 41.667969 L 5.207031 47.917969 L 5.207031 12.5 C 5.207031 9.0625 8.019531 6.25 11.457031 6.25 L 38.542969 6.25 C 41.980469 6.25 44.792969 9.0625 44.792969 12.5 L 44.792969 35.417969 C 44.792969 38.855469 41.980469 41.667969 38.542969 41.667969 Z M 38.542969 41.667969 "/>
<path style=" stroke:none;fill-rule:nonzero;fill:rgb(100%,100%,100%);fill-opacity:1;" d="M 22.917969 20.832031 L 27.082031 20.832031 L 27.082031 32.292969 L 22.917969 32.292969 Z M 22.917969 20.832031 "/>
<path style=" stroke:none;fill-rule:nonzero;fill:rgb(100%,100%,100%);fill-opacity:1;" d="M 22.917969 15.625 C 22.917969 16.777344 23.847656 17.707031 25 17.707031 C 26.152344 17.707031 27.082031 16.777344 27.082031 15.625 C 27.082031 14.472656 26.152344 13.542969 25 13.542969 C 23.847656 13.542969 22.917969 14.472656 22.917969 15.625 Z M 22.917969 15.625 "/>
</g>
</svg>
