<?xml version="1.0" encoding="UTF-8"?>
<svg xmlns="http://www.w3.org/2000/svg" xmlns:xlink="http://www.w3.org/1999/xlink" width="50px" height="50px" viewBox="0 0 50 50" version="1.1">
<g id="surface1">
<path style=" stroke:none;fill-rule:nonzero;fill:rgb(58.823532%,58.823532%,58.823532%);fill-opacity:1;" d="M 11.980469 0 C 5.382812 0 0 5.382812 0 11.980469 C 0 18.578125 5.382812 23.957031 11.980469 23.957031 C 18.578125 23.957031 23.957031 18.578125 23.957031 11.980469 C 23.957031 5.382812 18.578125 0 11.980469 0 Z M 11.980469 3.125 C 16.886719 3.125 20.832031 7.070312 20.832031 11.980469 C 20.832031 16.886719 16.886719 20.832031 11.980469 20.832031 C 7.070312 20.832031 3.125 16.886719 3.125 11.980469 C 3.125 7.070312 7.070312 3.125 11.980469 3.125 Z M 11.953125 5.1875 C 11.09375 5.199219 10.40625 5.910156 10.417969 6.769531 L 10.417969 11.980469 C 10.417969 12.394531 10.582031 12.789062 10.875 13.082031 L 12.957031 15.167969 C 13.351562 15.574219 13.929688 15.738281 14.480469 15.597656 C 15.027344 15.453125 15.453125 15.027344 15.597656 14.480469 C 15.738281 13.929688 15.574219 13.351562 15.167969 12.957031 L 13.542969 11.332031 L 13.542969 6.769531 C 13.546875 6.347656 13.382812 5.941406 13.082031 5.644531 C 12.785156 5.34375 12.378906 5.179688 11.953125 5.1875 Z M 24.8125 6.25 C 25.253906 7.238281 25.585938 8.285156 25.792969 9.375 L 36.980469 9.375 C 38.988281 9.375 40.625 11.011719 40.625 13.019531 L 40.625 14.582031 L 25.792969 14.582031 C 25.585938 15.675781 25.253906 16.722656 24.8125 17.707031 L 40.625 17.707031 L 40.625 36.980469 C 40.625 38.988281 38.988281 40.625 36.980469 40.625 L 13.019531 40.625 C 11.011719 40.625 9.375 38.988281 9.375 36.980469 L 9.375 25.792969 C 8.285156 25.585938 7.238281 25.253906 6.25 24.8125 L 6.25 36.980469 C 6.25 40.710938 9.289062 43.75 13.019531 43.75 L 36.980469 43.75 C 40.710938 43.75 43.75 40.710938 43.75 36.980469 L 43.75 13.019531 C 43.75 9.289062 40.710938 6.25 36.980469 6.25 Z M 25 21.875 C 23.5625 21.875 22.394531 23.039062 22.394531 24.480469 C 22.394531 25.917969 23.5625 27.082031 25 27.082031 C 26.4375 27.082031 27.605469 25.917969 27.605469 24.480469 C 27.605469 23.039062 26.4375 21.875 25 21.875 Z M 33.855469 21.875 C 32.414062 21.875 31.25 23.039062 31.25 24.480469 C 31.25 25.917969 32.414062 27.082031 33.855469 27.082031 C 35.292969 27.082031 36.457031 25.917969 36.457031 24.480469 C 36.457031 23.039062 35.292969 21.875 33.855469 21.875 Z M 16.144531 31.25 C 14.707031 31.25 13.542969 32.414062 13.542969 33.855469 C 13.542969 35.292969 14.707031 36.457031 16.144531 36.457031 C 17.585938 36.457031 18.75 35.292969 18.75 33.855469 C 18.75 32.414062 17.585938 31.25 16.144531 31.25 Z M 25 31.25 C 23.5625 31.25 22.394531 32.414062 22.394531 33.855469 C 22.394531 35.292969 23.5625 36.457031 25 36.457031 C 26.4375 36.457031 27.605469 35.292969 27.605469 33.855469 C 27.605469 32.414062 26.4375 31.25 25 31.25 Z M 25 31.25 "/>
</g>
</svg>
