<?xml version="1.0" encoding="UTF-8"?>
<svg xmlns="http://www.w3.org/2000/svg" xmlns:xlink="http://www.w3.org/1999/xlink" width="50px" height="50px" viewBox="0 0 50 50" version="1.1">
<g id="surface1">
<path style=" stroke:none;fill-rule:nonzero;fill:rgb(58.823532%,58.823532%,58.823532%);fill-opacity:1;" d="M 31.710938 5.671875 C 31.625 5.671875 31.535156 5.679688 31.449219 5.695312 L 9.976562 9.351562 C 7.234375 9.820312 5.207031 12.21875 5.207031 15 L 5.207031 32.8125 C 5.199219 33.375 5.496094 33.898438 5.984375 34.183594 C 6.46875 34.46875 7.070312 34.46875 7.558594 34.183594 C 8.046875 33.898438 8.339844 33.375 8.332031 32.8125 L 8.332031 15 C 8.332031 13.71875 9.238281 12.648438 10.5 12.433594 L 31.972656 8.777344 C 32.78125 8.652344 33.359375 7.917969 33.289062 7.101562 C 33.222656 6.285156 32.53125 5.660156 31.710938 5.671875 Z M 37.960938 10.878906 C 37.875 10.878906 37.785156 10.886719 37.699219 10.90625 L 16.226562 14.5625 C 13.484375 15.027344 11.457031 17.425781 11.457031 20.207031 L 11.457031 38.019531 C 11.449219 38.585938 11.746094 39.109375 12.234375 39.390625 C 12.71875 39.675781 13.320312 39.675781 13.808594 39.390625 C 14.296875 39.109375 14.589844 38.585938 14.582031 38.019531 L 14.582031 20.207031 C 14.582031 18.929688 15.488281 17.855469 16.75 17.640625 L 38.222656 13.984375 C 39.03125 13.859375 39.609375 13.128906 39.539062 12.308594 C 39.472656 11.492188 38.78125 10.867188 37.960938 10.878906 Z M 40.878906 16.675781 C 40.703125 16.683594 40.527344 16.703125 40.351562 16.734375 L 22.484375 19.765625 C 19.738281 20.234375 17.707031 22.632812 17.707031 25.417969 L 17.707031 40.105469 C 17.707031 42.980469 20.355469 45.207031 23.191406 44.722656 L 41.054688 41.691406 C 43.800781 41.222656 45.832031 38.824219 45.832031 36.042969 L 45.832031 21.355469 C 45.832031 18.660156 43.503906 16.53125 40.878906 16.675781 Z M 41.238281 19.792969 C 42.0625 19.828125 42.707031 20.484375 42.707031 21.355469 L 42.707031 36.042969 C 42.707031 37.320312 41.800781 38.394531 40.535156 38.609375 L 22.667969 41.644531 C 21.675781 41.8125 20.832031 41.101562 20.832031 40.105469 L 20.832031 25.417969 C 20.832031 24.140625 21.738281 23.066406 23.007812 22.847656 L 40.875 19.8125 C 41 19.792969 41.121094 19.785156 41.238281 19.792969 Z M 41.238281 19.792969 "/>
</g>
</svg>
