<?xml version="1.0" encoding="UTF-8"?>
<svg xmlns="http://www.w3.org/2000/svg" xmlns:xlink="http://www.w3.org/1999/xlink" width="50px" height="50px" viewBox="0 0 50 50" version="1.1">
<g id="surface1">
<path style=" stroke:none;fill-rule:nonzero;fill:rgb(90.196079%,91.764706%,91.764706%);fill-opacity:1;" d="M 0.78125 1.199219 L 49.21875 1.199219 L 49.21875 48.800781 L 0.78125 48.800781 Z M 0.78125 1.199219 "/>
<path style=" stroke:none;fill-rule:nonzero;fill:rgb(80.392158%,83.137256%,83.529413%);fill-opacity:1;" d="M 0.78125 1.199219 L 25 1.199219 L 25 48.800781 L 0.78125 48.800781 Z M 0.78125 1.199219 "/>
<path style=" stroke:none;fill-rule:nonzero;fill:rgb(100%,81.960785%,66.274512%);fill-opacity:1;" d="M 25 34.601562 L 14.5625 24.582031 L 4.957031 35.019531 L 4.957031 44.625 L 45.042969 44.625 L 45.042969 14.5625 L 35.4375 24.582031 Z M 25 34.601562 "/>
<path style=" stroke:none;fill-rule:nonzero;fill:rgb(100%,54.901963%,16.078432%);fill-opacity:1;" d="M 14.5625 24.582031 L 4.957031 35.019531 L 4.957031 44.625 L 25 44.625 L 25 34.601562 Z M 14.5625 24.582031 "/>
<path style=" stroke:none;fill-rule:nonzero;fill:rgb(40.784314%,49.803922%,50.980395%);fill-opacity:1;" d="M 45.042969 4.59375 L 4.957031 4.59375 C 4.527344 4.59375 4.175781 4.945312 4.175781 5.375 L 4.175781 44.625 C 4.175781 45.054688 4.527344 45.40625 4.957031 45.40625 L 45.042969 45.40625 C 45.472656 45.40625 45.824219 45.054688 45.824219 44.625 L 45.824219 5.375 C 45.824219 4.945312 45.472656 4.59375 45.042969 4.59375 Z M 34.65625 23.800781 L 25.78125 23.800781 L 25.78125 15.34375 L 34.65625 15.34375 Z M 36.222656 15.34375 L 44.257812 15.34375 L 44.257812 23.800781 L 36.222656 23.800781 Z M 25.78125 13.777344 L 25.78125 6.160156 L 34.65625 6.160156 L 34.65625 13.777344 Z M 24.21875 13.777344 L 15.34375 13.777344 L 15.34375 6.160156 L 24.21875 6.160156 Z M 24.21875 15.34375 L 24.21875 23.800781 L 15.34375 23.800781 L 15.34375 15.34375 Z M 13.777344 23.800781 L 5.742188 23.800781 L 5.742188 15.34375 L 13.777344 15.34375 Z M 5.742188 25.367188 L 13.777344 25.367188 L 13.777344 33.820312 L 5.742188 33.820312 Z M 15.34375 25.367188 L 24.21875 25.367188 L 24.21875 33.820312 L 15.34375 33.820312 Z M 24.21875 35.386719 L 24.21875 43.839844 L 15.34375 43.839844 L 15.34375 35.386719 Z M 25.78125 35.386719 L 34.65625 35.386719 L 34.65625 43.839844 L 25.78125 43.839844 Z M 25.78125 33.820312 L 25.78125 25.367188 L 34.65625 25.367188 L 34.65625 33.820312 Z M 36.222656 25.367188 L 44.257812 25.367188 L 44.257812 33.820312 L 36.222656 33.820312 Z M 44.257812 13.777344 L 36.222656 13.777344 L 36.222656 6.160156 L 44.257812 6.160156 Z M 13.777344 6.160156 L 13.777344 13.777344 L 5.742188 13.777344 L 5.742188 6.160156 Z M 5.742188 35.386719 L 13.777344 35.386719 L 13.777344 43.839844 L 5.742188 43.839844 Z M 36.222656 43.839844 L 36.222656 35.386719 L 44.257812 35.386719 L 44.257812 43.839844 Z M 36.222656 43.839844 "/>
<path style=" stroke:none;fill-rule:nonzero;fill:rgb(21.176471%,33.333334%,34.509805%);fill-opacity:1;" d="M 4.957031 4.59375 C 4.527344 4.59375 4.175781 4.945312 4.175781 5.375 L 4.175781 44.625 C 4.175781 45.054688 4.527344 45.40625 4.957031 45.40625 L 25 45.40625 L 25 4.59375 Z M 13.777344 43.839844 L 5.742188 43.839844 L 5.742188 35.386719 L 13.777344 35.386719 Z M 13.777344 33.820312 L 5.742188 33.820312 L 5.742188 25.367188 L 13.777344 25.367188 Z M 13.777344 23.800781 L 5.742188 23.800781 L 5.742188 15.34375 L 13.777344 15.34375 Z M 13.777344 13.777344 L 5.742188 13.777344 L 5.742188 6.160156 L 13.777344 6.160156 Z M 24.21875 43.839844 L 15.34375 43.839844 L 15.34375 35.386719 L 24.21875 35.386719 Z M 24.21875 33.820312 L 15.34375 33.820312 L 15.34375 25.367188 L 24.21875 25.367188 Z M 24.21875 23.800781 L 15.34375 23.800781 L 15.34375 15.34375 L 24.21875 15.34375 Z M 15.34375 13.777344 L 15.34375 6.160156 L 24.21875 6.160156 L 24.21875 13.777344 Z M 15.34375 13.777344 "/>
<path style=" stroke:none;fill-rule:nonzero;fill:rgb(94.117647%,20.784314%,23.921569%);fill-opacity:1;" d="M 7.046875 34.601562 C 7.046875 33.449219 6.109375 32.515625 4.957031 32.515625 C 3.804688 32.515625 2.871094 33.449219 2.871094 34.601562 C 2.871094 35.757812 3.804688 36.691406 4.957031 36.691406 C 6.109375 36.691406 7.046875 35.757812 7.046875 34.601562 Z M 7.046875 34.601562 "/>
<path style=" stroke:none;fill-rule:nonzero;fill:rgb(0.784314%,58.431375%,66.666669%);fill-opacity:1;" d="M 16.648438 24.582031 C 16.648438 23.429688 15.714844 22.496094 14.5625 22.496094 C 13.410156 22.496094 12.472656 23.429688 12.472656 24.582031 C 12.472656 25.734375 13.410156 26.671875 14.5625 26.671875 C 15.714844 26.671875 16.648438 25.734375 16.648438 24.582031 Z M 16.648438 24.582031 "/>
<path style=" stroke:none;fill-rule:nonzero;fill:rgb(99.215686%,41.568628%,20%);fill-opacity:1;" d="M 27.085938 34.601562 C 27.085938 33.449219 26.152344 32.515625 25 32.515625 C 23.847656 32.515625 22.914062 33.449219 22.914062 34.601562 C 22.914062 35.757812 23.847656 36.691406 25 36.691406 C 26.152344 36.691406 27.085938 35.757812 27.085938 34.601562 Z M 27.085938 34.601562 "/>
<path style=" stroke:none;fill-rule:nonzero;fill:rgb(94.117647%,20.784314%,23.921569%);fill-opacity:1;" d="M 22.914062 34.601562 C 22.914062 35.757812 23.847656 36.691406 25 36.691406 L 25 32.515625 C 23.847656 32.515625 22.914062 33.449219 22.914062 34.601562 Z M 22.914062 34.601562 "/>
<path style=" stroke:none;fill-rule:nonzero;fill:rgb(29.019609%,81.176472%,85.09804%);fill-opacity:1;" d="M 37.527344 24.582031 C 37.527344 23.429688 36.589844 22.496094 35.4375 22.496094 C 34.285156 22.496094 33.351562 23.429688 33.351562 24.582031 C 33.351562 25.734375 34.285156 26.671875 35.4375 26.671875 C 36.589844 26.671875 37.527344 25.734375 37.527344 24.582031 Z M 37.527344 24.582031 "/>
<path style=" stroke:none;fill-rule:nonzero;fill:rgb(29.019609%,81.176472%,85.09804%);fill-opacity:1;" d="M 46.710938 14.5625 C 46.710938 13.410156 45.777344 12.472656 44.625 12.472656 C 43.472656 12.472656 42.535156 13.410156 42.535156 14.5625 C 42.535156 15.714844 43.472656 16.648438 44.625 16.648438 C 45.777344 16.648438 46.710938 15.714844 46.710938 14.5625 Z M 46.710938 14.5625 "/>
<path style=" stroke:none;fill-rule:nonzero;fill:rgb(0%,0%,0%);fill-opacity:1;" d="M 49.21875 0.417969 L 0.78125 0.417969 C 0.351562 0.417969 0 0.769531 0 1.199219 L 0 48.800781 C 0 49.230469 0.351562 49.582031 0.78125 49.582031 L 49.21875 49.582031 C 49.648438 49.582031 50 49.230469 50 48.800781 L 50 1.199219 C 50 0.769531 49.648438 0.417969 49.21875 0.417969 Z M 48.433594 48.015625 L 1.566406 48.015625 L 1.566406 1.984375 L 48.433594 1.984375 Z M 48.433594 48.015625 "/>
<path style=" stroke:none;fill-rule:nonzero;fill:rgb(0%,0%,0%);fill-opacity:1;" d="M 4.957031 37.472656 C 6.539062 37.472656 7.828125 36.1875 7.828125 34.601562 C 7.828125 34.171875 7.730469 33.75 7.546875 33.363281 L 13.269531 27.144531 C 13.667969 27.34375 14.109375 27.453125 14.5625 27.453125 C 15.082031 27.453125 15.578125 27.316406 16.011719 27.058594 L 22.464844 33.257812 C 22.246094 33.667969 22.128906 34.128906 22.128906 34.601562 C 22.128906 36.1875 23.417969 37.472656 25 37.472656 C 26.582031 37.472656 27.871094 36.1875 27.871094 34.601562 C 27.871094 34.128906 27.753906 33.667969 27.535156 33.257812 L 33.988281 27.058594 C 34.421875 27.316406 34.917969 27.453125 35.4375 27.453125 C 37.019531 27.453125 38.308594 26.164062 38.308594 24.582031 C 38.308594 24.0625 38.171875 23.566406 37.914062 23.132812 L 43.570312 17.230469 C 43.902344 17.363281 44.257812 17.433594 44.625 17.433594 C 44.816406 17.433594 45.007812 17.414062 45.195312 17.375 L 45.199219 17.375 C 46.527344 17.105469 47.496094 15.921875 47.496094 14.5625 C 47.496094 13.203125 46.527344 12.019531 45.199219 11.75 C 45.007812 11.710938 44.816406 11.691406 44.625 11.691406 C 43.042969 11.691406 41.753906 12.976562 41.753906 14.5625 C 41.753906 15.179688 41.957031 15.777344 42.320312 16.269531 L 36.78125 22.046875 C 36.371094 21.828125 35.910156 21.710938 35.4375 21.710938 C 33.855469 21.710938 32.566406 23 32.566406 24.582031 C 32.566406 25.058594 32.683594 25.519531 32.90625 25.929688 L 26.449219 32.125 C 26.015625 31.871094 25.519531 31.734375 25 31.734375 C 24.480469 31.734375 23.984375 31.871094 23.550781 32.125 L 17.09375 25.929688 C 17.316406 25.519531 17.433594 25.058594 17.433594 24.582031 C 17.433594 23 16.144531 21.710938 14.5625 21.710938 C 12.980469 21.710938 11.691406 23 11.691406 24.582031 C 11.691406 25.113281 11.84375 25.632812 12.117188 26.082031 L 6.503906 32.183594 C 6.046875 31.894531 5.515625 31.734375 4.957031 31.734375 C 3.375 31.734375 2.085938 33.019531 2.085938 34.601562 C 2.085938 36.1875 3.375 37.472656 4.957031 37.472656 Z M 25 35.90625 C 24.28125 35.90625 23.695312 35.324219 23.695312 34.601562 C 23.695312 34.265625 23.824219 33.945312 24.058594 33.703125 C 24.058594 33.699219 24.058594 33.699219 24.058594 33.699219 C 24.308594 33.441406 24.644531 33.296875 25 33.296875 C 25.355469 33.296875 25.691406 33.441406 25.941406 33.699219 C 25.941406 33.699219 25.941406 33.699219 25.941406 33.703125 C 26.175781 33.945312 26.304688 34.265625 26.304688 34.601562 C 26.304688 35.324219 25.71875 35.90625 25 35.90625 Z M 44.625 13.257812 C 44.710938 13.257812 44.800781 13.265625 44.886719 13.28125 C 45.492188 13.40625 45.929688 13.945312 45.929688 14.5625 C 45.929688 15.179688 45.492188 15.71875 44.886719 15.839844 C 44.535156 15.910156 44.167969 15.832031 43.871094 15.621094 C 43.816406 15.585938 43.777344 15.550781 43.746094 15.523438 C 43.46875 15.269531 43.320312 14.929688 43.320312 14.5625 C 43.320312 13.84375 43.90625 13.257812 44.625 13.257812 Z M 35.4375 23.277344 C 35.761719 23.277344 36.074219 23.398438 36.316406 23.621094 C 36.316406 23.621094 36.320312 23.621094 36.320312 23.625 L 36.339844 23.640625 C 36.601562 23.890625 36.742188 24.226562 36.742188 24.582031 C 36.742188 25.300781 36.15625 25.886719 35.4375 25.886719 C 35.082031 25.886719 34.746094 25.746094 34.5 25.484375 C 34.496094 25.484375 34.496094 25.484375 34.496094 25.484375 C 34.261719 25.238281 34.132812 24.917969 34.132812 24.582031 C 34.132812 23.863281 34.71875 23.277344 35.4375 23.277344 Z M 14.5625 23.277344 C 15.28125 23.277344 15.867188 23.863281 15.867188 24.582031 C 15.867188 24.917969 15.738281 25.238281 15.503906 25.484375 C 15.503906 25.484375 15.5 25.484375 15.5 25.484375 C 15.253906 25.746094 14.917969 25.886719 14.5625 25.886719 C 14.234375 25.886719 13.921875 25.765625 13.679688 25.542969 C 13.40625 25.289062 13.257812 24.949219 13.257812 24.582031 C 13.257812 23.863281 13.84375 23.277344 14.5625 23.277344 Z M 4.957031 33.296875 C 5.347656 33.296875 5.714844 33.472656 5.964844 33.773438 C 6.160156 34.007812 6.261719 34.296875 6.261719 34.601562 C 6.261719 35.324219 5.679688 35.90625 4.957031 35.90625 C 4.238281 35.90625 3.652344 35.324219 3.652344 34.601562 C 3.652344 33.882812 4.238281 33.296875 4.957031 33.296875 Z M 4.957031 33.296875 "/>
</g>
</svg>
