<?xml version="1.0" encoding="UTF-8"?>
<svg xmlns="http://www.w3.org/2000/svg" xmlns:xlink="http://www.w3.org/1999/xlink" width="50px" height="50px" viewBox="0 0 50 50" version="1.1">
<g id="surface1">
<path style=" stroke:none;fill-rule:nonzero;fill:rgb(58.823532%,58.823532%,58.823532%);fill-opacity:1;" d="M 26.042969 2.082031 C 22.609375 2.082031 19.792969 4.898438 19.792969 8.332031 L 13.019531 8.332031 C 11.027344 8.332031 9.375 9.984375 9.375 11.980469 L 9.375 18.75 C 5.941406 18.75 3.125 21.566406 3.125 25 C 3.125 28.433594 5.941406 31.25 9.375 31.25 L 9.375 38.019531 C 9.375 40.015625 11.027344 41.667969 13.019531 41.667969 L 19.792969 41.667969 C 19.792969 45.101562 22.609375 47.917969 26.042969 47.917969 C 29.476562 47.917969 32.292969 45.101562 32.292969 41.667969 L 39.0625 41.667969 C 41.058594 41.667969 42.707031 40.015625 42.707031 38.019531 L 42.707031 29.6875 C 42.707031 28.824219 42.007812 28.125 41.144531 28.125 L 38.542969 28.125 C 36.796875 28.125 35.417969 26.742188 35.417969 25 C 35.417969 23.257812 36.796875 21.875 38.542969 21.875 L 41.144531 21.875 C 42.007812 21.875 42.707031 21.175781 42.707031 20.3125 L 42.707031 11.980469 C 42.707031 9.984375 41.058594 8.332031 39.0625 8.332031 L 32.292969 8.332031 C 32.292969 4.898438 29.476562 2.082031 26.042969 2.082031 Z M 26.042969 5.207031 C 27.785156 5.207031 29.167969 6.589844 29.167969 8.332031 L 29.167969 9.894531 C 29.167969 10.757812 29.867188 11.457031 30.730469 11.457031 L 39.0625 11.457031 C 39.371094 11.457031 39.582031 11.671875 39.582031 11.980469 L 39.582031 18.75 L 38.542969 18.75 C 35.109375 18.75 32.292969 21.566406 32.292969 25 C 32.292969 28.433594 35.109375 31.25 38.542969 31.25 L 39.582031 31.25 L 39.582031 38.019531 C 39.582031 38.328125 39.371094 38.542969 39.0625 38.542969 L 30.730469 38.542969 C 29.867188 38.542969 29.167969 39.242188 29.167969 40.105469 L 29.167969 41.667969 C 29.167969 43.410156 27.785156 44.792969 26.042969 44.792969 C 24.296875 44.792969 22.917969 43.410156 22.917969 41.667969 L 22.917969 40.105469 C 22.917969 39.242188 22.21875 38.542969 21.355469 38.542969 L 13.019531 38.542969 C 12.714844 38.542969 12.5 38.328125 12.5 38.019531 L 12.5 29.6875 C 12.5 28.824219 11.800781 28.125 10.9375 28.125 L 9.375 28.125 C 7.632812 28.125 6.25 26.742188 6.25 25 C 6.25 23.257812 7.632812 21.875 9.375 21.875 L 10.9375 21.875 C 11.800781 21.875 12.5 21.175781 12.5 20.3125 L 12.5 11.980469 C 12.5 11.671875 12.714844 11.457031 13.019531 11.457031 L 21.355469 11.457031 C 22.21875 11.457031 22.917969 10.757812 22.917969 9.894531 L 22.917969 8.332031 C 22.917969 6.589844 24.296875 5.207031 26.042969 5.207031 Z M 26.042969 5.207031 "/>
</g>
</svg>
