<?xml version="1.0" encoding="UTF-8"?>
<svg xmlns="http://www.w3.org/2000/svg" xmlns:xlink="http://www.w3.org/1999/xlink" width="50px" height="50px" viewBox="0 0 50 50" version="1.1">
<g id="surface1">
<path style=" stroke:none;fill-rule:nonzero;fill:rgb(100%,72.156864%,60.392159%);fill-opacity:1;" d="M 18.296875 26.898438 C 18.296875 31.339844 21.894531 34.941406 26.335938 34.941406 C 30.78125 34.941406 34.378906 31.339844 34.378906 26.898438 C 34.378906 22.457031 30.78125 18.859375 26.335938 18.859375 C 21.894531 18.859375 18.296875 22.457031 18.296875 26.898438 Z M 18.296875 26.898438 "/>
<path style=" stroke:none;fill-rule:nonzero;fill:rgb(20%,80.000001%,60.000002%);fill-opacity:1;" d="M 33.167969 19.796875 C 32.734375 19.109375 31.832031 18.90625 31.148438 19.339844 C 30.464844 19.773438 30.257812 20.679688 30.695312 21.363281 C 31.375 22.441406 31.738281 23.691406 31.738281 24.976562 C 31.738281 25.785156 32.390625 26.441406 33.203125 26.441406 C 34.015625 26.441406 34.667969 25.785156 34.667969 24.976562 C 34.667969 23.132812 34.148438 21.34375 33.167969 19.796875 Z M 33.167969 19.796875 "/>
<path style=" stroke:none;fill-rule:nonzero;fill:rgb(20%,80.000001%,60.000002%);fill-opacity:1;" d="M 29.65625 29.851562 C 28.394531 31.070312 26.726562 31.738281 24.96875 31.738281 C 21.242188 31.738281 18.207031 28.707031 18.207031 24.976562 C 18.207031 21.246094 21.242188 18.210938 24.96875 18.210938 C 26.089844 18.210938 27.152344 18.476562 28.132812 18.992188 C 28.847656 19.375 29.734375 19.101562 30.117188 18.382812 C 30.496094 17.671875 30.226562 16.78125 29.507812 16.402344 C 28.121094 15.664062 26.550781 15.277344 24.96875 15.277344 C 19.625 15.277344 15.277344 19.628906 15.277344 24.96875 C 15.277344 30.316406 19.628906 34.667969 24.976562 34.667969 C 27.492188 34.667969 29.878906 33.707031 31.6875 31.960938 C 32.269531 31.402344 32.289062 30.472656 31.726562 29.894531 C 31.171875 29.3125 30.242188 29.292969 29.65625 29.855469 Z M 29.65625 29.851562 "/>
<path style=" stroke:none;fill-rule:nonzero;fill:rgb(27.058825%,28.235295%,29.803923%);fill-opacity:1;" d="M 41.683594 18.085938 C 40.835938 16.023438 40.992188 13.667969 42.0625 11.320312 C 41.066406 10.078125 39.941406 8.945312 38.707031 7.949219 C 36.351562 9.015625 33.988281 9.164062 31.929688 8.3125 C 29.863281 7.453125 28.300781 5.664062 27.398438 3.230469 C 26.597656 3.144531 25.785156 3.101562 24.964844 3.101562 C 24.191406 3.101562 23.421875 3.140625 22.667969 3.222656 C 21.753906 5.652344 20.191406 7.441406 18.121094 8.300781 C 16.046875 9.160156 13.667969 8.988281 11.300781 7.902344 C 10.070312 8.886719 8.949219 10 7.960938 11.226562 C 9.046875 13.597656 9.210938 15.976562 8.34375 18.054688 C 7.480469 20.136719 5.679688 21.699219 3.222656 22.601562 C 3.140625 23.382812 3.097656 24.179688 3.097656 24.980469 C 3.097656 25.765625 3.140625 26.542969 3.21875 27.304688 C 5.667969 28.210938 7.472656 29.785156 8.332031 31.863281 C 9.191406 33.945312 9.019531 36.324219 7.929688 38.695312 C 8.917969 39.921875 10.035156 41.039062 11.265625 42.03125 C 13.636719 40.945312 16.015625 40.785156 18.089844 41.648438 C 20.160156 42.507812 21.71875 44.300781 22.628906 46.738281 C 23.398438 46.820312 24.183594 46.867188 24.980469 46.867188 C 25.785156 46.867188 26.578125 46.820312 27.359375 46.738281 C 28.273438 44.304688 29.835938 42.523438 31.90625 41.671875 C 33.964844 40.820312 36.328125 40.976562 38.683594 42.046875 C 39.921875 41.050781 41.050781 39.921875 42.046875 38.679688 C 40.980469 36.328125 40.832031 33.96875 41.691406 31.910156 C 42.542969 29.851562 44.320312 28.296875 46.734375 27.390625 C 46.820312 26.601562 46.867188 25.796875 46.867188 24.984375 C 46.867188 24.1875 46.820312 23.402344 46.738281 22.632812 C 44.308594 21.703125 42.539062 20.148438 41.683594 18.085938 Z M 38.964844 30.777344 C 37.898438 33.339844 37.9375 36.1875 38.992188 38.992188 C 36.1875 37.933594 33.339844 37.886719 30.777344 38.945312 C 28.207031 40.003906 26.226562 42.046875 24.984375 44.773438 C 23.75 42.039062 21.773438 39.996094 19.207031 38.929688 C 17.949219 38.40625 16.617188 38.148438 15.257812 38.148438 C 13.851562 38.148438 12.417969 38.421875 10.992188 38.960938 C 12.050781 36.152344 12.097656 33.304688 11.039062 30.742188 C 9.980469 28.171875 7.9375 26.191406 5.210938 24.949219 C 7.945312 23.714844 9.988281 21.738281 11.054688 19.175781 C 12.117188 16.609375 12.078125 13.765625 11.023438 10.957031 C 12.460938 11.5 13.90625 11.777344 15.316406 11.777344 C 16.667969 11.777344 17.988281 11.523438 19.242188 11.003906 C 21.8125 9.945312 23.792969 7.90625 25.035156 5.175781 C 26.269531 7.910156 28.246094 9.957031 30.808594 11.019531 C 33.375 12.085938 36.21875 12.046875 39.027344 10.992188 C 37.96875 13.796875 37.917969 16.644531 38.980469 19.207031 C 40.039062 21.777344 42.078125 23.757812 44.808594 25 C 42.074219 26.230469 40.03125 28.207031 38.964844 30.777344 Z M 38.964844 30.777344 "/>
</g>
</svg>
