<?xml version="1.0" encoding="UTF-8"?>
<svg xmlns="http://www.w3.org/2000/svg" xmlns:xlink="http://www.w3.org/1999/xlink" width="50px" height="50px" viewBox="0 0 50 50" version="1.1">
<g id="surface1">
<path style=" stroke:none;fill-rule:nonzero;fill:rgb(89.019608%,45.490196%,30.588236%);fill-opacity:1;" d="M 27.304688 19.925781 L 25 15.292969 L 22.695312 19.925781 L 19.777344 18.472656 L 25 7.976562 L 30.222656 18.472656 Z M 27.304688 19.925781 "/>
<path style=" stroke:none;fill-rule:nonzero;fill:rgb(87.843138%,32.549021%,13.725491%);fill-opacity:1;" d="M 27.304688 19.925781 L 25 15.292969 L 25 7.976562 L 30.222656 18.472656 Z M 27.304688 19.925781 "/>
<path style=" stroke:none;fill-rule:nonzero;fill:rgb(67.058825%,45.09804%,8.235294%);fill-opacity:1;" d="M 23.371094 23.546875 L 26.628906 23.546875 L 26.628906 40.433594 L 23.371094 40.433594 Z M 23.371094 23.546875 "/>
<path style=" stroke:none;fill-rule:nonzero;fill:rgb(45.490196%,30.588236%,7.058824%);fill-opacity:1;" d="M 3.367188 31.757812 L 13.320312 31.757812 L 13.320312 35.019531 L 3.367188 35.019531 Z M 3.367188 31.757812 "/>
<path style=" stroke:none;fill-rule:nonzero;fill:rgb(45.490196%,30.588236%,7.058824%);fill-opacity:1;" d="M 1.738281 29.085938 L 5 29.085938 L 5 42.023438 L 1.738281 42.023438 Z M 1.738281 29.085938 "/>
<path style=" stroke:none;fill-rule:nonzero;fill:rgb(45.490196%,30.588236%,7.058824%);fill-opacity:1;" d="M 11.691406 29.085938 L 14.949219 29.085938 L 14.949219 42.023438 L 11.691406 42.023438 Z M 11.691406 29.085938 "/>
<path style=" stroke:none;fill-rule:nonzero;fill:rgb(67.058825%,45.09804%,8.235294%);fill-opacity:1;" d="M 16.65625 30.597656 L 0 30.597656 L 0 11.933594 L 3.261719 11.933594 L 3.261719 27.335938 L 16.65625 27.335938 Z M 16.65625 30.597656 "/>
<path style=" stroke:none;fill-rule:nonzero;fill:rgb(45.490196%,30.588236%,7.058824%);fill-opacity:1;" d="M 36.679688 31.757812 L 46.628906 31.757812 L 46.628906 35.019531 L 36.679688 35.019531 Z M 36.679688 31.757812 "/>
<path style=" stroke:none;fill-rule:nonzero;fill:rgb(45.490196%,30.588236%,7.058824%);fill-opacity:1;" d="M 45 29.085938 L 48.261719 29.085938 L 48.261719 42.023438 L 45 42.023438 Z M 45 29.085938 "/>
<path style=" stroke:none;fill-rule:nonzero;fill:rgb(45.490196%,30.588236%,7.058824%);fill-opacity:1;" d="M 35.050781 29.085938 L 38.308594 29.085938 L 38.308594 42.023438 L 35.050781 42.023438 Z M 35.050781 29.085938 "/>
<path style=" stroke:none;fill-rule:nonzero;fill:rgb(67.058825%,45.09804%,8.235294%);fill-opacity:1;" d="M 33.34375 30.597656 L 50 30.597656 L 50 11.933594 L 46.738281 11.933594 L 46.738281 27.335938 L 33.34375 27.335938 Z M 33.34375 30.597656 "/>
<path style=" stroke:none;fill-rule:nonzero;fill:rgb(45.490196%,30.588236%,7.058824%);fill-opacity:1;" d="M 39.140625 25.175781 L 10.859375 25.175781 L 10.859375 19.199219 L 39.140625 19.199219 Z M 39.140625 25.175781 "/>
<path style=" stroke:none;fill-rule:nonzero;fill:rgb(67.058825%,45.09804%,8.235294%);fill-opacity:1;" d="M 8.234375 17.566406 L 41.769531 17.566406 L 41.769531 20.828125 L 8.234375 20.828125 Z M 8.234375 17.566406 "/>
<path style=" stroke:none;fill-rule:nonzero;fill:rgb(45.490196%,30.588236%,7.058824%);fill-opacity:1;" d="M 19.300781 38.765625 L 30.699219 38.765625 L 30.699219 42.023438 L 19.300781 42.023438 Z M 19.300781 38.765625 "/>
</g>
</svg>
