<?xml version="1.0" encoding="UTF-8"?>
<svg xmlns="http://www.w3.org/2000/svg" xmlns:xlink="http://www.w3.org/1999/xlink" width="50px" height="50px" viewBox="0 0 50 50" version="1.1">
<g id="surface1">
<path style=" stroke:none;fill-rule:nonzero;fill:rgb(92.54902%,92.941177%,93.725491%);fill-opacity:1;" d="M 33.351562 49.21875 L 8.296875 49.21875 L 8.296875 30.011719 C 8.296875 28.164062 9.792969 26.671875 11.640625 26.671875 L 30.011719 26.671875 C 31.855469 26.671875 33.351562 28.164062 33.351562 30.011719 Z M 33.351562 49.21875 "/>
<path style=" stroke:none;fill-rule:nonzero;fill:rgb(85.09804%,86.274511%,87.450981%);fill-opacity:1;" d="M 14.980469 26.671875 L 11.640625 26.671875 C 9.792969 26.671875 8.296875 28.164062 8.296875 30.011719 L 8.296875 49.21875 L 11.640625 49.21875 L 11.640625 30.011719 C 11.640625 28.164062 13.132812 26.671875 14.980469 26.671875 Z M 14.980469 26.671875 "/>
<path style=" stroke:none;fill-rule:nonzero;fill:rgb(100%,92.156863%,78.431374%);fill-opacity:1;" d="M 34.1875 17.484375 C 34.1875 16.101562 33.0625 14.980469 31.679688 14.980469 C 30.296875 14.980469 29.175781 16.101562 29.175781 17.484375 C 29.175781 18.867188 30.296875 19.988281 31.679688 19.988281 C 33.0625 19.988281 34.1875 18.867188 34.1875 17.484375 Z M 34.1875 17.484375 "/>
<path style=" stroke:none;fill-rule:nonzero;fill:rgb(100%,92.156863%,78.431374%);fill-opacity:1;" d="M 12.472656 17.484375 C 12.472656 16.101562 11.351562 14.980469 9.96875 14.980469 C 8.585938 14.980469 7.464844 16.101562 7.464844 17.484375 C 7.464844 18.867188 8.585938 19.988281 9.96875 19.988281 C 11.351562 19.988281 12.472656 18.867188 12.472656 17.484375 Z M 12.472656 17.484375 "/>
<path style=" stroke:none;fill-rule:nonzero;fill:rgb(100%,92.156863%,78.431374%);fill-opacity:1;" d="M 30.84375 14.980469 C 30.84375 9.445312 26.359375 4.957031 20.824219 4.957031 C 15.289062 4.957031 10.804688 9.445312 10.804688 14.980469 C 10.804688 20.511719 15.289062 25 20.824219 25 C 26.359375 25 30.84375 20.511719 30.84375 14.980469 Z M 30.84375 14.980469 "/>
<path style=" stroke:none;fill-rule:nonzero;fill:rgb(100%,84.313726%,56.862748%);fill-opacity:1;" d="M 22.496094 24.164062 C 16.960938 24.164062 12.472656 19.679688 12.472656 14.144531 C 12.472656 10.550781 14.363281 7.402344 17.203125 5.632812 C 13.460938 7.085938 10.804688 10.722656 10.804688 14.980469 C 10.804688 20.511719 15.289062 25 20.824219 25 C 22.765625 25 24.578125 24.445312 26.113281 23.492188 C 24.992188 23.925781 23.769531 24.164062 22.496094 24.164062 Z M 22.496094 24.164062 "/>
<path style=" stroke:none;fill-rule:nonzero;fill:rgb(40.784314%,44.705883%,49.411765%);fill-opacity:1;" d="M 20.824219 4.125 L 9.132812 4.125 L 9.96875 7.464844 L 6.628906 7.464844 C 6.628906 7.464844 11.640625 19.671875 13.308594 23.328125 C 13.308594 21.625 13.308594 18.707031 13.308594 16.648438 C 13.308594 14.347656 13.308594 12.472656 13.308594 12.472656 L 28.339844 12.472656 L 28.339844 23.328125 C 30.398438 21.355469 31.679688 18.058594 31.679688 14.980469 C 31.679688 8.984375 26.820312 4.125 20.824219 4.125 Z M 20.824219 4.125 "/>
<path style=" stroke:none;fill-rule:nonzero;fill:rgb(33.333334%,37.64706%,43.137255%);fill-opacity:1;" d="M 21.679688 4.15625 C 21.398438 4.132812 21.113281 4.125 20.824219 4.125 L 9.132812 4.125 L 9.96875 7.464844 L 6.628906 7.464844 C 6.628906 7.464844 11.640625 19.671875 13.308594 23.328125 C 13.308594 22.011719 13.308594 19.964844 13.308594 18.152344 C 12.773438 16.925781 12.472656 15.570312 12.472656 14.144531 C 12.472656 8.882812 16.527344 4.570312 21.679688 4.15625 Z M 21.679688 4.15625 "/>
<path style=" stroke:none;fill-rule:nonzero;fill:rgb(31.37255%,62.352943%,90.980393%);fill-opacity:1;" d="M 22.496094 30.84375 L 19.15625 30.84375 L 17.484375 26.671875 L 24.164062 26.671875 Z M 22.496094 30.84375 "/>
<path style=" stroke:none;fill-rule:nonzero;fill:rgb(31.37255%,62.352943%,90.980393%);fill-opacity:1;" d="M 24.164062 45.042969 L 20.824219 46.710938 L 17.484375 45.042969 L 19.15625 30.84375 L 22.496094 30.84375 Z M 24.164062 45.042969 "/>
<path style=" stroke:none;fill-rule:nonzero;fill:rgb(30.19608%,54.901963%,81.176472%);fill-opacity:1;" d="M 22.496094 30.84375 L 19.15625 30.84375 L 18.953125 32.550781 L 22.695312 32.550781 Z M 22.496094 30.84375 "/>
<path style=" stroke:none;fill-rule:nonzero;fill:rgb(100%,54.901963%,47.058824%);fill-opacity:1;" d="M 48.382812 8.296875 C 48.382812 4.148438 45.015625 0.78125 40.867188 0.78125 C 36.714844 0.78125 33.351562 4.148438 33.351562 8.296875 C 33.351562 12.449219 36.714844 15.8125 40.867188 15.8125 C 45.015625 15.8125 48.382812 12.449219 48.382812 8.296875 Z M 48.382812 8.296875 "/>
<path style=" stroke:none;fill-rule:nonzero;fill:rgb(85.09804%,86.274511%,87.450981%);fill-opacity:1;" d="M 45.875 8.296875 C 45.875 5.53125 43.632812 3.289062 40.867188 3.289062 C 38.097656 3.289062 35.855469 5.53125 35.855469 8.296875 C 35.855469 11.066406 38.097656 13.308594 40.867188 13.308594 C 43.632812 13.308594 45.875 11.066406 45.875 8.296875 Z M 45.875 8.296875 "/>
<path style=" stroke:none;fill-rule:nonzero;fill:rgb(96.470588%,96.470588%,96.862745%);fill-opacity:1;" d="M 44.207031 8.296875 C 44.207031 6.453125 42.710938 4.957031 40.867188 4.957031 C 39.023438 4.957031 37.527344 6.453125 37.527344 8.296875 C 37.527344 10.144531 39.023438 11.640625 40.867188 11.640625 C 42.710938 11.640625 44.207031 10.144531 44.207031 8.296875 Z M 44.207031 8.296875 "/>
<path style=" stroke:none;fill-rule:nonzero;fill:rgb(96.470588%,96.470588%,96.862745%);fill-opacity:1;" d="M 43.371094 9.96875 L 40.867188 8.296875 L 40.867188 5.792969 "/>
<path style=" stroke:none;fill-rule:nonzero;fill:rgb(100%,76.862746%,30.980393%);fill-opacity:1;" d="M 15.8125 41.703125 C 15.8125 37.550781 12.449219 34.1875 8.296875 34.1875 C 4.148438 34.1875 0.78125 37.550781 0.78125 41.703125 C 0.78125 45.851562 4.148438 49.21875 8.296875 49.21875 C 12.449219 49.21875 15.8125 45.851562 15.8125 41.703125 Z M 15.8125 41.703125 "/>
<path style=" stroke:none;fill-rule:nonzero;fill:rgb(40.784314%,44.705883%,49.411765%);fill-opacity:1;" d="M 28.339844 34.1875 L 49.21875 34.1875 L 49.21875 49.21875 L 28.339844 49.21875 Z M 28.339844 34.1875 "/>
<path style=" stroke:none;fill-rule:nonzero;fill:rgb(25.882354%,30.980393%,36.862746%);fill-opacity:1;" d="M 49.21875 38.796875 L 49.21875 35.855469 L 28.339844 35.855469 L 28.339844 38.65625 L 38.777344 43.371094 Z M 49.21875 38.796875 "/>
<path style=" stroke:none;fill-rule:nonzero;fill:rgb(40.784314%,44.705883%,49.411765%);fill-opacity:1;" d="M 49.21875 37.128906 L 49.21875 34.1875 L 28.339844 34.1875 L 28.339844 36.988281 L 38.777344 41.703125 Z M 49.21875 37.128906 "/>
<path style=" stroke:none;fill-rule:nonzero;fill:rgb(100%,84.313726%,56.862748%);fill-opacity:1;" d="M 36.691406 40.03125 L 40.867188 40.03125 L 40.867188 43.371094 L 36.691406 43.371094 Z M 36.691406 40.03125 "/>
<path style=" stroke:none;fill-rule:nonzero;fill:rgb(100%,76.862746%,30.980393%);fill-opacity:1;" d="M 36.691406 41.703125 L 40.867188 41.703125 L 40.867188 43.371094 L 36.691406 43.371094 Z M 36.691406 41.703125 "/>
<path style=" stroke:none;fill-rule:nonzero;fill:rgb(0%,0%,0%);fill-opacity:1;" d="M 16.648438 15.867188 L 15.8125 15.867188 C 15.382812 15.867188 15.03125 16.21875 15.03125 16.648438 C 15.03125 17.082031 15.382812 17.433594 15.8125 17.433594 L 16.648438 17.433594 C 17.082031 17.433594 17.433594 17.082031 17.433594 16.648438 C 17.433594 16.21875 17.082031 15.867188 16.648438 15.867188 Z M 16.648438 15.867188 "/>
<path style=" stroke:none;fill-rule:nonzero;fill:rgb(0%,0%,0%);fill-opacity:1;" d="M 25.835938 15.867188 L 25 15.867188 C 24.566406 15.867188 24.21875 16.21875 24.21875 16.648438 C 24.21875 17.082031 24.566406 17.433594 25 17.433594 L 25.835938 17.433594 C 26.265625 17.433594 26.617188 17.082031 26.617188 16.648438 C 26.617188 16.21875 26.265625 15.867188 25.835938 15.867188 Z M 25.835938 15.867188 "/>
<path style=" stroke:none;fill-rule:nonzero;fill:rgb(0%,0%,0%);fill-opacity:1;" d="M 8.675781 14.460938 C 7.496094 14.96875 6.679688 16.148438 6.679688 17.484375 C 6.679688 19.296875 8.15625 20.773438 9.96875 20.773438 C 10.402344 20.773438 10.832031 20.6875 11.226562 20.519531 C 11.777344 21.804688 12.257812 22.910156 12.597656 23.65625 C 12.746094 23.980469 13.109375 24.167969 13.457031 24.097656 C 13.789062 24.035156 14.046875 23.757812 14.085938 23.421875 C 15.988281 24.9375 18.371094 25.78125 20.824219 25.78125 C 23.28125 25.78125 25.664062 24.9375 27.5625 23.421875 C 27.597656 23.695312 27.773438 23.9375 28.035156 24.050781 C 28.320312 24.171875 28.65625 24.113281 28.882812 23.894531 C 29.773438 23.039062 30.535156 21.945312 31.125 20.726562 C 31.308594 20.757812 31.492188 20.773438 31.679688 20.773438 C 33.492188 20.773438 34.96875 19.296875 34.96875 17.484375 C 34.96875 15.957031 33.902344 14.632812 32.441406 14.285156 C 32.082031 8.1875 27.007812 3.339844 20.824219 3.339844 L 9.132812 3.339844 C 8.632812 3.339844 8.253906 3.828125 8.375 4.3125 L 8.964844 6.679688 L 6.628906 6.679688 C 6.082031 6.679688 5.695312 7.253906 5.902344 7.761719 C 5.929688 7.820312 7.203125 10.929688 8.675781 14.460938 Z M 9.96875 19.207031 C 9.019531 19.207031 8.246094 18.433594 8.246094 17.484375 C 8.246094 16.789062 8.667969 16.175781 9.28125 15.90625 C 9.730469 16.980469 10.183594 18.0625 10.613281 19.082031 C 10.410156 19.164062 10.195312 19.207031 9.96875 19.207031 Z M 20.824219 24.21875 C 18.285156 24.21875 15.832031 23.15625 14.089844 21.304688 L 14.089844 13.257812 L 27.558594 13.257812 L 27.558594 21.304688 C 25.816406 23.15625 23.367188 24.21875 20.824219 24.21875 Z M 33.402344 17.484375 C 33.402344 18.410156 32.664062 19.167969 31.746094 19.203125 C 32.105469 18.148438 32.339844 17.039062 32.425781 15.933594 C 33.007812 16.214844 33.402344 16.8125 33.402344 17.484375 Z M 9.96875 8.246094 C 10.46875 8.246094 10.851562 7.761719 10.726562 7.273438 L 10.136719 4.90625 L 20.824219 4.90625 C 26.378906 4.90625 30.898438 9.425781 30.898438 14.980469 C 30.898438 17.140625 30.230469 19.375 29.121094 21.125 L 29.121094 12.472656 C 29.121094 12.042969 28.773438 11.691406 28.339844 11.691406 L 13.308594 11.691406 C 12.875 11.691406 12.527344 12.042969 12.527344 12.472656 L 12.527344 19.578125 C 10.894531 15.75 8.71875 10.488281 7.796875 8.246094 Z M 9.96875 8.246094 "/>
<path style=" stroke:none;fill-rule:nonzero;fill:rgb(0%,0%,0%);fill-opacity:1;" d="M 22.964844 19.363281 C 22.617188 19.105469 22.128906 19.175781 21.867188 19.519531 C 21.480469 20.035156 20.851562 20.042969 20.824219 20.042969 C 20.179688 20.042969 19.796875 19.542969 19.78125 19.519531 C 19.523438 19.175781 19.03125 19.105469 18.683594 19.363281 C 18.339844 19.621094 18.269531 20.113281 18.527344 20.460938 C 18.671875 20.652344 19.457031 21.609375 20.824219 21.609375 C 21.0625 21.609375 22.300781 21.550781 23.121094 20.460938 C 23.378906 20.113281 23.308594 19.621094 22.964844 19.363281 Z M 22.964844 19.363281 "/>
<path style=" stroke:none;fill-rule:nonzero;fill:rgb(0%,0%,0%);fill-opacity:1;" d="M 40.867188 16.597656 C 45.441406 16.597656 49.164062 12.875 49.164062 8.296875 C 49.164062 3.722656 45.441406 0 40.867188 0 C 39.164062 0 37.53125 0.511719 36.136719 1.476562 C 35.78125 1.726562 35.695312 2.210938 35.941406 2.566406 C 36.1875 2.921875 36.675781 3.011719 37.03125 2.765625 C 38.160156 1.980469 39.484375 1.566406 40.867188 1.566406 C 44.578125 1.566406 47.597656 4.585938 47.597656 8.296875 C 47.597656 12.011719 44.578125 15.03125 40.867188 15.03125 C 37.152344 15.03125 34.132812 12.011719 34.132812 8.296875 C 34.132812 7.410156 34.304688 6.546875 34.640625 5.734375 C 34.804688 5.332031 34.613281 4.875 34.214844 4.710938 C 33.8125 4.546875 33.355469 4.738281 33.191406 5.136719 C 32.777344 6.140625 32.566406 7.203125 32.566406 8.296875 C 32.566406 12.875 36.289062 16.597656 40.867188 16.597656 Z M 40.867188 16.597656 "/>
<path style=" stroke:none;fill-rule:nonzero;fill:rgb(0%,0%,0%);fill-opacity:1;" d="M 40.867188 14.09375 C 44.0625 14.09375 46.660156 11.492188 46.660156 8.296875 C 46.660156 5.105469 44.0625 2.503906 40.867188 2.503906 C 37.671875 2.503906 35.074219 5.105469 35.074219 8.296875 C 35.074219 11.492188 37.671875 14.09375 40.867188 14.09375 Z M 40.867188 4.070312 C 43.199219 4.070312 45.09375 5.96875 45.09375 8.296875 C 45.09375 10.628906 43.199219 12.527344 40.867188 12.527344 C 38.535156 12.527344 36.640625 10.628906 36.640625 8.296875 C 36.640625 5.96875 38.535156 4.070312 40.867188 4.070312 Z M 40.867188 4.070312 "/>
<path style=" stroke:none;fill-rule:nonzero;fill:rgb(0%,0%,0%);fill-opacity:1;" d="M 40.433594 8.949219 L 42.9375 10.621094 C 43.320312 10.875 43.855469 10.738281 44.066406 10.328125 C 44.25 9.976562 44.132812 9.535156 43.804688 9.316406 L 41.648438 7.878906 L 41.648438 5.792969 C 41.648438 5.359375 41.296875 5.011719 40.867188 5.011719 C 40.433594 5.011719 40.082031 5.359375 40.082031 5.792969 L 40.082031 8.296875 C 40.082031 8.558594 40.214844 8.804688 40.433594 8.949219 Z M 40.433594 8.949219 "/>
<path style=" stroke:none;fill-rule:nonzero;fill:rgb(0%,0%,0%);fill-opacity:1;" d="M 49.21875 33.402344 L 42.902344 33.402344 L 42.902344 32.515625 C 42.902344 31.164062 41.800781 30.0625 40.449219 30.0625 L 37.109375 30.0625 C 35.753906 30.0625 34.65625 31.164062 34.65625 32.515625 L 34.65625 33.402344 L 34.132812 33.402344 L 34.132812 30.011719 C 34.132812 27.738281 32.285156 25.886719 30.011719 25.886719 L 11.640625 25.886719 C 9.367188 25.886719 7.515625 27.738281 7.515625 30.011719 L 7.515625 33.441406 C 3.304688 33.835938 0 37.390625 0 41.703125 C 0 46.277344 3.722656 50 8.296875 50 C 8.355469 50 18.320312 50 18.320312 50 C 18.75 50 19.101562 49.648438 19.101562 49.21875 C 19.101562 48.785156 18.75 48.433594 18.320312 48.433594 L 13.140625 48.433594 C 15.230469 46.925781 16.597656 44.472656 16.597656 41.703125 C 16.597656 37.390625 13.292969 33.835938 9.082031 33.441406 L 9.082031 30.011719 C 9.082031 28.601562 10.230469 27.453125 11.640625 27.453125 L 16.953125 27.453125 L 18.355469 30.953125 L 16.707031 44.949219 C 16.667969 45.277344 16.839844 45.59375 17.132812 45.742188 L 20.476562 47.410156 C 20.691406 47.519531 20.957031 47.519531 21.175781 47.410156 L 24.515625 45.742188 C 24.808594 45.59375 24.980469 45.277344 24.941406 44.949219 L 23.296875 30.953125 L 24.695312 27.453125 L 30.011719 27.453125 C 31.421875 27.453125 32.566406 28.601562 32.566406 30.011719 L 32.566406 33.402344 L 28.339844 33.402344 C 27.90625 33.402344 27.558594 33.753906 27.558594 34.1875 L 27.558594 48.433594 L 22.460938 48.433594 C 22.027344 48.433594 21.675781 48.785156 21.675781 49.21875 C 21.675781 49.648438 22.027344 50 22.460938 50 L 49.21875 50 C 49.648438 50 50 49.648438 50 49.21875 L 50 45.042969 C 50 44.609375 49.648438 44.257812 49.21875 44.257812 C 48.785156 44.257812 48.433594 44.609375 48.433594 45.042969 L 48.433594 48.433594 L 29.125 48.433594 L 29.125 38.199219 L 35.90625 41.265625 L 35.90625 43.371094 C 35.90625 43.804688 36.257812 44.15625 36.691406 44.15625 L 40.867188 44.15625 C 41.296875 44.15625 41.648438 43.804688 41.648438 43.371094 L 41.648438 41.296875 L 48.433594 38.324219 L 48.433594 40.9375 C 48.433594 41.367188 48.785156 41.71875 49.21875 41.71875 C 49.648438 41.71875 50 41.367188 50 40.9375 L 50 34.1875 C 50 33.753906 49.648438 33.402344 49.21875 33.402344 Z M 15.03125 41.703125 C 15.03125 45.414062 12.011719 48.433594 8.296875 48.433594 C 4.585938 48.433594 1.566406 45.414062 1.566406 41.703125 C 1.566406 37.988281 4.585938 34.96875 8.296875 34.96875 C 12.011719 34.96875 15.03125 37.988281 15.03125 41.703125 Z M 20.824219 45.835938 L 18.324219 44.585938 L 19.851562 31.628906 L 21.796875 31.628906 L 23.324219 44.585938 Z M 21.964844 30.0625 L 19.683594 30.0625 L 18.640625 27.453125 L 23.007812 27.453125 Z M 36.222656 32.515625 C 36.222656 32.027344 36.621094 31.628906 37.109375 31.628906 L 40.449219 31.628906 C 40.9375 31.628906 41.335938 32.027344 41.335938 32.515625 L 41.335938 33.402344 L 36.222656 33.402344 Z M 40.082031 42.589844 L 37.472656 42.589844 L 37.472656 40.8125 L 40.082031 40.8125 Z M 41.542969 39.636719 C 41.40625 39.40625 41.15625 39.25 40.867188 39.25 L 36.691406 39.25 C 36.417969 39.25 36.175781 39.390625 36.035156 39.605469 L 29.125 36.480469 L 29.125 34.96875 L 48.433594 34.96875 L 48.433594 36.617188 Z M 41.542969 39.636719 "/>
<path style=" stroke:none;fill-rule:nonzero;fill:rgb(0%,0%,0%);fill-opacity:1;" d="M 8.296875 40.917969 C 7.808594 40.917969 7.410156 40.546875 7.410156 40.058594 C 7.410156 39.566406 7.808594 39.195312 8.296875 39.195312 L 9.96875 39.195312 C 10.402344 39.195312 10.75 38.847656 10.75 38.414062 C 10.75 37.980469 10.402344 37.628906 9.96875 37.628906 L 9.027344 37.628906 L 9.027344 36.691406 C 9.027344 36.257812 8.679688 35.90625 8.246094 35.90625 C 7.8125 35.90625 7.464844 36.257812 7.464844 36.691406 L 7.464844 37.707031 C 6.523438 38.035156 5.820312 38.953125 5.820312 40.03125 C 5.820312 41.382812 6.933594 42.484375 8.285156 42.484375 C 8.773438 42.484375 9.179688 42.910156 9.179688 43.398438 C 9.179688 43.886719 8.789062 44.3125 8.296875 44.3125 L 6.628906 44.3125 C 6.195312 44.3125 5.84375 44.660156 5.84375 45.09375 C 5.84375 45.527344 6.195312 45.875 6.628906 45.875 L 7.464844 45.875 L 7.464844 46.710938 C 7.464844 47.144531 7.8125 47.496094 8.246094 47.496094 C 8.679688 47.496094 9.027344 47.144531 9.027344 46.710938 L 9.027344 45.695312 C 10.074219 45.367188 10.726562 44.449219 10.726562 43.371094 C 10.726562 42.019531 9.652344 40.917969 8.296875 40.917969 Z M 8.296875 40.917969 "/>
</g>
</svg>
