<?xml version="1.0" encoding="UTF-8"?>
<svg xmlns="http://www.w3.org/2000/svg" xmlns:xlink="http://www.w3.org/1999/xlink" width="512px" height="512px" viewBox="0 0 512 512" version="1.1">
<g id="surface1">
<path style=" stroke:none;fill-rule:nonzero;fill:rgb(99.215686%,51.764709%,41.176471%);fill-opacity:1;" d="M 512 256 C 512 114.613281 397.386719 0 256 0 C 114.613281 0 0 114.613281 0 256 C 0 397.386719 114.613281 512 256 512 C 397.386719 512 512 397.386719 512 256 Z M 512 256 "/>
<path style=" stroke:none;fill-rule:nonzero;fill:rgb(100%,81.568629%,35.686275%);fill-opacity:1;" d="M 205.914062 240.996094 C 206.117188 212.605469 222.035156 184.015625 222.035156 184.015625 C 214.9375 216.664062 241.402344 236.027344 241.402344 236.027344 C 202.875 183.203125 257.621094 151.773438 257.621094 151.773438 C 257.621094 151.773438 241.402344 169.316406 264.414062 194.863281 C 264.414062 194.863281 283.273438 214.027344 290.066406 240.996094 L 298.175781 240.996094 C 360.527344 194.964844 300.914062 102.601562 300.914062 102.601562 C 312.066406 149.140625 266.847656 177.527344 266.847656 177.527344 C 331.835938 102.5 245.558594 59.007812 241.90625 57.28125 C 243.632812 59.007812 267.253906 83.339844 229.03125 119.128906 C 229.03125 119.128906 162.625 176.613281 184.523438 240.894531 L 205.914062 240.894531 Z M 205.914062 240.996094 "/>
<path style=" stroke:none;fill-rule:nonzero;fill:rgb(100%,100%,100%);fill-opacity:1;" d="M 401.285156 416.394531 L 110.714844 416.394531 C 110.105469 416.394531 109.597656 415.886719 109.597656 415.277344 L 109.597656 240.996094 C 109.597656 240.386719 110.105469 239.878906 110.714844 239.878906 L 401.183594 239.878906 C 401.792969 239.878906 402.300781 240.386719 402.300781 240.996094 L 402.300781 415.277344 C 402.402344 415.886719 401.894531 416.394531 401.285156 416.394531 Z M 401.285156 416.394531 "/>
<path style=" stroke:none;fill-rule:nonzero;fill:rgb(32.941177%,75.294119%,92.156863%);fill-opacity:1;" d="M 109.597656 331.632812 L 109.597656 411.832031 C 109.597656 414.363281 111.625 416.394531 114.160156 416.394531 L 397.839844 416.394531 C 400.375 416.394531 402.402344 414.363281 402.402344 411.832031 L 402.402344 331.632812 Z M 109.597656 331.632812 "/>
<path style=" stroke:none;fill-rule:nonzero;fill:rgb(19.607843%,29.019609%,36.862746%);fill-opacity:1;" d="M 199.832031 260.664062 L 210.882812 260.664062 L 210.882812 310.242188 L 199.832031 310.242188 L 199.832031 290.777344 L 180.164062 290.777344 L 180.164062 310.242188 L 169.113281 310.242188 L 169.113281 260.664062 L 180.164062 260.664062 L 180.164062 281.347656 L 199.832031 281.347656 Z M 199.832031 260.664062 "/>
<path style=" stroke:none;fill-rule:nonzero;fill:rgb(19.607843%,29.019609%,36.862746%);fill-opacity:1;" d="M 278.914062 303.347656 C 273.945312 308.214844 267.761719 310.648438 260.359375 310.648438 C 253.058594 310.648438 246.875 308.214844 241.804688 303.347656 C 236.738281 298.480469 234.304688 292.398438 234.304688 285.097656 C 234.304688 277.796875 236.839844 271.714844 241.804688 266.847656 C 246.773438 261.980469 252.957031 259.546875 260.359375 259.546875 C 267.660156 259.546875 273.84375 261.980469 278.914062 266.847656 C 283.882812 271.714844 286.414062 277.796875 286.414062 285.097656 C 286.414062 292.398438 283.984375 298.480469 278.914062 303.347656 Z M 275.160156 285.199219 C 275.160156 280.738281 273.742188 276.988281 270.902344 273.84375 C 268.066406 270.699219 264.617188 269.179688 260.460938 269.179688 C 256.304688 269.179688 252.855469 270.699219 250.019531 273.84375 C 247.179688 276.988281 245.761719 280.738281 245.761719 285.199219 C 245.761719 289.660156 247.179688 293.410156 250.019531 296.453125 C 252.855469 299.597656 256.304688 301.117188 260.460938 301.117188 C 264.617188 301.117188 268.066406 299.597656 270.902344 296.453125 C 273.742188 293.308594 275.160156 289.558594 275.160156 285.199219 Z M 275.160156 285.199219 "/>
<path style=" stroke:none;fill-rule:nonzero;fill:rgb(19.607843%,29.019609%,36.862746%);fill-opacity:1;" d="M 329.605469 270.195312 L 329.605469 310.140625 L 318.554688 310.140625 L 318.554688 270.195312 L 304.5625 270.195312 L 304.5625 260.664062 L 343.699219 260.664062 L 343.699219 270.195312 Z M 329.605469 270.195312 "/>
<path style=" stroke:none;fill-rule:nonzero;fill:rgb(100%,100%,100%);fill-opacity:1;" d="M 170.226562 353.9375 C 173.066406 356.371094 174.585938 360.125 174.585938 365.191406 C 174.585938 370.261719 173.066406 373.910156 170.125 376.34375 C 167.1875 378.777344 162.625 379.894531 156.640625 379.894531 L 151.167969 379.894531 L 151.167969 391.351562 L 142.042969 391.351562 L 142.042969 350.289062 L 156.539062 350.289062 C 162.824219 350.289062 167.386719 351.503906 170.226562 353.9375 Z M 163.535156 370.058594 C 164.652344 368.84375 165.15625 367.019531 165.15625 364.6875 C 165.15625 362.355469 164.449219 360.628906 163.027344 359.617188 C 161.609375 358.601562 159.378906 358.097656 156.335938 358.097656 L 151.167969 358.097656 L 151.167969 371.882812 L 157.351562 371.882812 C 160.394531 371.984375 162.421875 371.378906 163.535156 370.058594 Z M 163.535156 370.058594 "/>
<path style=" stroke:none;fill-rule:nonzero;fill:rgb(100%,100%,100%);fill-opacity:1;" d="M 226.699219 363.875 C 226.699219 370.464844 224.0625 374.722656 218.894531 376.648438 L 229.234375 391.351562 L 217.980469 391.351562 L 208.855469 378.273438 L 202.570312 378.273438 L 202.570312 391.351562 L 193.445312 391.351562 L 193.445312 350.289062 L 208.957031 350.289062 C 215.34375 350.289062 219.90625 351.40625 222.644531 353.535156 C 225.28125 355.664062 226.699219 359.109375 226.699219 363.875 Z M 215.648438 368.742188 C 216.761719 367.726562 217.371094 366.105469 217.371094 363.875 C 217.371094 361.644531 216.761719 360.125 215.648438 359.3125 C 214.433594 358.5 212.402344 358.097656 209.464844 358.097656 L 202.570312 358.097656 L 202.570312 370.261719 L 209.261719 370.261719 C 212.402344 370.261719 214.53125 369.753906 215.648438 368.742188 Z M 215.648438 368.742188 "/>
<path style=" stroke:none;fill-rule:nonzero;fill:rgb(100%,100%,100%);fill-opacity:1;" d="M 247.789062 350.289062 L 256.914062 350.289062 L 256.914062 391.25 L 247.789062 391.25 Z M 247.789062 350.289062 "/>
<path style=" stroke:none;fill-rule:nonzero;fill:rgb(100%,100%,100%);fill-opacity:1;" d="M 297.566406 383.238281 C 302.03125 383.238281 305.78125 381.414062 308.621094 377.867188 L 314.5 383.949219 C 309.835938 389.222656 304.359375 391.859375 298.074219 391.859375 C 291.789062 391.859375 286.515625 389.828125 282.460938 385.875 C 278.40625 381.921875 276.378906 376.851562 276.378906 370.769531 C 276.378906 364.6875 278.507812 359.617188 282.664062 355.5625 C 286.820312 351.503906 291.890625 349.476562 297.972656 349.476562 C 304.664062 349.476562 310.34375 352.011719 314.90625 357.183594 L 309.226562 363.671875 C 306.289062 360.125 302.738281 358.296875 298.480469 358.296875 C 295.035156 358.296875 292.09375 359.414062 289.660156 361.644531 C 287.226562 363.875 286.011719 366.917969 286.011719 370.769531 C 286.011719 374.621094 287.125 377.664062 289.457031 379.996094 C 291.484375 382.023438 294.324219 383.238281 297.566406 383.238281 Z M 297.566406 383.238281 "/>
<path style=" stroke:none;fill-rule:nonzero;fill:rgb(100%,100%,100%);fill-opacity:1;" d="M 362.960938 350.289062 L 362.960938 358.398438 L 342.582031 358.398438 L 342.582031 366.816406 L 360.933594 366.816406 L 360.933594 374.621094 L 342.582031 374.621094 L 342.582031 383.136719 L 363.671875 383.136719 L 363.671875 391.25 L 333.460938 391.25 L 333.460938 350.289062 Z M 362.960938 350.289062 "/>
</g>
</svg>
