<?xml version="1.0" encoding="UTF-8"?>
<svg xmlns="http://www.w3.org/2000/svg" xmlns:xlink="http://www.w3.org/1999/xlink" width="50px" height="50px" viewBox="0 0 50 50" version="1.1">
<g id="surface1">
<path style=" stroke:none;fill-rule:nonzero;fill:rgb(58.823532%,58.823532%,58.823532%);fill-opacity:1;" d="M 14.0625 5.207031 C 11.9375 5.207031 10.144531 6.0625 8.988281 7.359375 C 7.835938 8.660156 7.292969 10.328125 7.292969 11.980469 C 7.292969 13.628906 7.835938 15.296875 8.988281 16.597656 C 9.832031 17.546875 11.09375 18.117188 12.5 18.433594 L 12.5 31.566406 C 11.09375 31.882812 9.832031 32.453125 8.988281 33.402344 C 7.835938 34.703125 7.292969 36.371094 7.292969 38.019531 C 7.292969 39.671875 7.835938 41.339844 8.988281 42.640625 C 10.144531 43.9375 11.9375 44.792969 14.0625 44.792969 C 17.785156 44.792969 20.832031 41.742188 20.832031 38.019531 C 20.832031 34.851562 18.578125 32.292969 15.625 31.566406 L 15.625 26.539062 C 16.933594 27.53125 18.554688 28.125 20.3125 28.125 L 29.339844 28.125 C 29.578125 29.234375 30.074219 30.292969 30.863281 31.179688 C 32.019531 32.480469 33.8125 33.332031 35.9375 33.332031 C 39.660156 33.332031 42.707031 30.285156 42.707031 26.5625 C 42.707031 22.839844 39.660156 19.792969 35.9375 19.792969 C 33.8125 19.792969 32.019531 20.644531 30.863281 21.945312 C 30.074219 22.832031 29.578125 23.890625 29.339844 25 L 20.3125 25 C 17.703125 25 15.625 22.921875 15.625 20.3125 L 15.625 18.433594 C 18.578125 17.707031 20.832031 15.148438 20.832031 11.980469 C 20.832031 8.257812 17.785156 5.207031 14.0625 5.207031 Z M 14.0625 8.332031 C 16.09375 8.332031 17.707031 9.945312 17.707031 11.980469 C 17.707031 13.980469 16.140625 15.558594 14.152344 15.605469 C 14.089844 15.601562 14.027344 15.601562 13.96875 15.605469 C 12.691406 15.582031 11.890625 15.15625 11.324219 14.523438 C 10.742188 13.867188 10.417969 12.933594 10.417969 11.980469 C 10.417969 11.023438 10.742188 10.089844 11.324219 9.4375 C 11.90625 8.78125 12.71875 8.332031 14.0625 8.332031 Z M 35.9375 22.917969 C 37.96875 22.917969 39.582031 24.53125 39.582031 26.5625 C 39.582031 28.59375 37.96875 30.207031 35.9375 30.207031 C 34.59375 30.207031 33.78125 29.761719 33.199219 29.105469 C 32.648438 28.488281 32.335938 27.617188 32.304688 26.71875 C 32.316406 26.613281 32.316406 26.507812 32.304688 26.402344 C 32.339844 25.503906 32.652344 24.636719 33.199219 24.019531 C 33.78125 23.363281 34.59375 22.917969 35.9375 22.917969 Z M 13.96875 34.394531 C 14.027344 34.398438 14.089844 34.398438 14.152344 34.394531 C 16.140625 34.441406 17.707031 36.019531 17.707031 38.019531 C 17.707031 40.054688 16.09375 41.667969 14.0625 41.667969 C 12.71875 41.667969 11.90625 41.21875 11.324219 40.5625 C 10.742188 39.910156 10.417969 38.976562 10.417969 38.019531 C 10.417969 37.066406 10.742188 36.132812 11.324219 35.476562 C 11.890625 34.84375 12.691406 34.417969 13.96875 34.394531 Z M 13.96875 34.394531 "/>
</g>
</svg>
