<?xml version="1.0" encoding="UTF-8"?>
<svg xmlns="http://www.w3.org/2000/svg" xmlns:xlink="http://www.w3.org/1999/xlink" width="50px" height="50px" viewBox="0 0 50 50" version="1.1">
<g id="surface1">
<path style=" stroke:none;fill-rule:nonzero;fill:rgb(99.607843%,78.431374%,73.333335%);fill-opacity:1;" d="M 14.746094 0.796875 L 17.9375 0.796875 L 17.9375 39.628906 L 14.746094 39.628906 Z M 14.746094 0.796875 "/>
<path style=" stroke:none;fill-rule:nonzero;fill:rgb(99.607843%,78.431374%,73.333335%);fill-opacity:1;" d="M 8.363281 0.796875 L 11.554688 0.796875 L 11.554688 39.628906 L 8.363281 39.628906 Z M 8.363281 0.796875 "/>
<path style=" stroke:none;fill-rule:nonzero;fill:rgb(51.764709%,69.01961%,26.666668%);fill-opacity:1;" d="M 38.25 17.695312 C 37.957031 17.695312 37.667969 17.710938 37.382812 17.742188 C 36.042969 15.5 33.605469 13.984375 30.808594 13.949219 L 30.808594 30.238281 L 45.578125 28.0625 C 45.867188 27.25 46.011719 26.375 46.011719 25.464844 C 46.011719 21.171875 42.542969 17.695312 38.25 17.695312 Z M 38.25 17.695312 "/>
<path style=" stroke:none;fill-rule:nonzero;fill:rgb(63.529414%,76.47059%,32.156864%);fill-opacity:1;" d="M 37.378906 17.75 C 37.136719 17.714844 36.890625 17.695312 36.640625 17.695312 C 36.410156 17.695312 36.183594 17.710938 35.957031 17.742188 C 34.90625 15.507812 33 13.996094 30.808594 13.949219 C 30.773438 13.949219 30.738281 13.949219 30.703125 13.949219 C 29.570312 13.949219 28.484375 14.191406 27.511719 14.628906 L 23.53125 21.527344 L 26.796875 28.0625 L 26.796875 30.238281 L 42.40625 28.0625 C 42.632812 27.25 42.753906 26.375 42.753906 25.464844 C 42.753906 21.492188 40.410156 18.214844 37.378906 17.75 Z M 37.378906 17.75 "/>
<path style=" stroke:none;fill-rule:nonzero;fill:rgb(93.725491%,26.274511%,11.372549%);fill-opacity:1;" d="M 27.511719 11.4375 L 27.511719 8.246094 C 22.222656 8.246094 17.9375 12.53125 17.9375 17.820312 C 17.9375 23.109375 22.222656 27.394531 27.511719 27.394531 L 27.511719 24.203125 C 27.511719 23.9375 25.382812 17.820312 25.382812 17.820312 Z M 27.511719 11.4375 "/>
<path style=" stroke:none;fill-rule:nonzero;fill:rgb(99.215686%,45.882353%,33.333334%);fill-opacity:1;" d="M 21.128906 17.820312 C 21.128906 21.339844 23.992188 24.203125 27.511719 24.203125 L 27.511719 11.4375 C 23.992188 11.4375 21.128906 14.300781 21.128906 17.820312 Z M 21.128906 17.820312 "/>
<path style=" stroke:none;fill-rule:nonzero;fill:rgb(60.000002%,85.09804%,100%);fill-opacity:1;" d="M 24.203125 27.394531 L 11.96875 30.054688 L 14.097656 17.289062 C 19.667969 17.289062 24.203125 21.820312 24.203125 27.394531 Z M 24.203125 27.394531 "/>
<path style=" stroke:none;fill-rule:nonzero;fill:rgb(80.000001%,92.54902%,100%);fill-opacity:1;" d="M 3.988281 27.394531 L 14.097656 30.054688 L 14.097656 17.289062 C 8.523438 17.289062 3.988281 21.820312 3.988281 27.394531 Z M 3.988281 27.394531 "/>
<path style=" stroke:none;fill-rule:nonzero;fill:rgb(80.000001%,92.54902%,100%);fill-opacity:1;" d="M 14.097656 20.480469 L 13.03125 29.519531 L 21.011719 27.394531 C 21.011719 23.574219 17.914062 20.480469 14.097656 20.480469 Z M 14.097656 20.480469 "/>
<path style=" stroke:none;fill-rule:nonzero;fill:rgb(92.941177%,97.254902%,100%);fill-opacity:1;" d="M 7.179688 27.394531 L 14.097656 30.054688 L 14.097656 20.480469 C 10.277344 20.480469 7.179688 23.574219 7.179688 27.394531 Z M 7.179688 27.394531 "/>
<path style=" stroke:none;fill-rule:nonzero;fill:rgb(60.000002%,85.09804%,100%);fill-opacity:1;" d="M 17.820312 27.394531 L 11.96875 30.054688 L 14.097656 23.671875 C 16.148438 23.671875 17.820312 25.339844 17.820312 27.394531 Z M 17.820312 27.394531 "/>
<path style=" stroke:none;fill-rule:nonzero;fill:rgb(80.000001%,92.54902%,100%);fill-opacity:1;" d="M 14.097656 23.671875 L 14.097656 29.519531 L 10.371094 27.394531 C 10.371094 25.339844 12.042969 23.671875 14.097656 23.671875 Z M 14.097656 23.671875 "/>
<path style=" stroke:none;fill-rule:nonzero;fill:rgb(99.215686%,80.784315%,43.137255%);fill-opacity:1;" d="M 42.820312 28.988281 L 24.203125 49.203125 L 27.394531 49.203125 C 37.675781 49.203125 46.011719 40.867188 46.011719 30.585938 L 46.011719 28.988281 Z M 42.820312 28.988281 "/>
<path style=" stroke:none;fill-rule:nonzero;fill:rgb(99.607843%,99.215686%,79.215688%);fill-opacity:1;" d="M 42.820312 30.585938 L 42.820312 28.988281 L 3.988281 28.988281 L 3.988281 30.585938 C 3.988281 40.867188 12.324219 49.203125 22.605469 49.203125 L 24.203125 49.203125 C 34.484375 49.203125 42.820312 40.867188 42.820312 30.585938 Z M 42.820312 30.585938 "/>
<path style=" stroke:none;fill-rule:nonzero;fill:rgb(100%,100%,100%);fill-opacity:1;" d="M 47.605469 27.394531 L 2.394531 27.394531 C 1.511719 27.394531 0.796875 28.109375 0.796875 28.988281 C 0.796875 29.871094 1.511719 30.585938 2.394531 30.585938 L 47.605469 30.585938 C 48.488281 30.585938 49.203125 29.871094 49.203125 28.988281 C 49.203125 28.109375 48.488281 27.394531 47.605469 27.394531 Z M 47.605469 27.394531 "/>
<path style=" stroke:none;fill-rule:nonzero;fill:rgb(0%,0%,0%);fill-opacity:1;" d="M 47.605469 26.597656 L 46.738281 26.597656 C 46.785156 26.226562 46.808594 25.847656 46.808594 25.464844 C 46.808594 20.742188 42.96875 16.894531 38.25 16.894531 C 38.101562 16.894531 37.949219 16.902344 37.796875 16.910156 C 36.207031 14.578125 33.535156 13.152344 30.703125 13.152344 C 29.882812 13.152344 29.082031 13.265625 28.308594 13.488281 L 28.308594 8.246094 C 28.308594 7.804688 27.953125 7.445312 27.511719 7.445312 C 23.820312 7.445312 20.574219 9.386719 18.734375 12.296875 L 18.734375 0.796875 C 18.734375 0.355469 18.378906 0 17.9375 0 L 14.746094 0 C 14.304688 0 13.949219 0.355469 13.949219 0.796875 L 13.949219 14.113281 C 13.949219 14.550781 14.304688 14.910156 14.746094 14.910156 C 15.1875 14.910156 15.542969 14.550781 15.542969 14.113281 L 15.542969 1.597656 L 17.140625 1.597656 L 17.140625 16.921875 C 16.171875 16.640625 15.152344 16.488281 14.097656 16.488281 C 13.503906 16.488281 12.921875 16.539062 12.351562 16.628906 L 12.351562 0.796875 C 12.351562 0.355469 11.996094 0 11.554688 0 L 8.363281 0 C 7.921875 0 7.566406 0.355469 7.566406 0.796875 L 7.566406 15.398438 C 7.566406 15.835938 7.921875 16.195312 8.363281 16.195312 C 8.804688 16.195312 9.160156 15.835938 9.160156 15.398438 L 9.160156 1.597656 L 10.757812 1.597656 L 10.757812 17.011719 C 6.613281 18.347656 3.546875 22.097656 3.222656 26.597656 L 2.394531 26.597656 C 1.074219 26.597656 0 27.667969 0 28.988281 C 0 30.308594 1.074219 31.382812 2.394531 31.382812 L 3.210938 31.382812 C 3.628906 41.71875 12.167969 50 22.605469 50 L 27.394531 50 C 37.832031 50 46.371094 41.71875 46.789062 31.382812 L 47.605469 31.382812 C 48.925781 31.382812 50 30.308594 50 28.988281 C 50 27.667969 48.925781 26.597656 47.605469 26.597656 Z M 30.703125 14.746094 C 33.148438 14.746094 35.441406 16.050781 36.695312 18.152344 C 36.855469 18.421875 37.160156 18.570312 37.46875 18.535156 C 37.738281 18.507812 38 18.492188 38.25 18.492188 C 42.089844 18.492188 45.214844 21.621094 45.214844 25.464844 C 45.214844 25.851562 45.183594 26.226562 45.128906 26.597656 L 37.921875 26.597656 L 40.605469 23.910156 C 40.917969 23.597656 40.917969 23.09375 40.605469 22.78125 C 40.292969 22.472656 39.789062 22.472656 39.476562 22.78125 L 35.664062 26.597656 L 31.503906 26.597656 L 31.503906 18.925781 C 31.503906 18.484375 31.144531 18.125 30.703125 18.125 C 30.265625 18.125 29.90625 18.484375 29.90625 18.925781 L 29.90625 26.597656 L 28.308594 26.597656 L 28.308594 15.167969 C 29.074219 14.890625 29.878906 14.746094 30.703125 14.746094 Z M 26.714844 9.078125 L 26.714844 10.683594 C 23.773438 11.011719 21.300781 13.121094 20.554688 16.042969 C 20.445312 16.46875 20.703125 16.902344 21.128906 17.011719 C 21.195312 17.027344 21.261719 17.035156 21.328125 17.035156 C 21.683594 17.035156 22.007812 16.796875 22.101562 16.4375 C 22.664062 14.222656 24.503906 12.609375 26.714844 12.292969 L 26.714844 26.597656 L 24.96875 26.597656 C 24.679688 22.585938 22.210938 19.171875 18.742188 17.53125 C 18.886719 13.089844 22.339844 9.472656 26.714844 9.078125 Z M 14.097656 18.085938 C 18.960938 18.085938 22.964844 21.835938 23.371094 26.597656 L 21.765625 26.597656 C 21.367188 22.714844 18.078125 19.679688 14.09375 19.679688 C 12.667969 19.679688 11.269531 20.074219 10.058594 20.824219 C 9.679688 21.054688 9.566406 21.546875 9.796875 21.921875 C 10.027344 22.296875 10.519531 22.414062 10.894531 22.179688 C 11.855469 21.589844 12.960938 21.277344 14.09375 21.277344 C 17.199219 21.277344 19.765625 23.597656 20.160156 26.597656 L 18.546875 26.597656 C 18.167969 24.480469 16.316406 22.871094 14.09375 22.871094 C 11.875 22.871094 10.023438 24.480469 9.644531 26.597656 L 8.03125 26.597656 C 8.144531 25.738281 8.4375 24.914062 8.894531 24.175781 C 9.125 23.800781 9.011719 23.308594 8.636719 23.078125 C 8.261719 22.84375 7.769531 22.960938 7.539062 23.335938 C 6.921875 24.328125 6.542969 25.441406 6.425781 26.597656 L 4.820312 26.597656 C 5.226562 21.835938 9.230469 18.085938 14.097656 18.085938 Z M 16.910156 26.597656 L 11.28125 26.597656 C 11.628906 25.371094 12.757812 24.46875 14.097656 24.46875 C 15.433594 24.46875 16.5625 25.371094 16.910156 26.597656 Z M 47.605469 29.789062 L 10.371094 29.789062 C 9.929688 29.789062 9.574219 30.144531 9.574219 30.585938 C 9.574219 31.027344 9.929688 31.382812 10.371094 31.382812 L 45.195312 31.382812 C 44.773438 40.839844 36.953125 48.402344 27.394531 48.402344 L 22.605469 48.402344 C 13.046875 48.402344 5.226562 40.839844 4.804688 31.382812 L 7.179688 31.382812 C 7.621094 31.382812 7.980469 31.027344 7.980469 30.585938 C 7.980469 30.144531 7.621094 29.789062 7.179688 29.789062 L 2.394531 29.789062 C 1.953125 29.789062 1.597656 29.429688 1.597656 28.988281 C 1.597656 28.550781 1.953125 28.191406 2.394531 28.191406 L 45.777344 28.191406 C 45.785156 28.191406 47.605469 28.191406 47.605469 28.191406 C 48.046875 28.191406 48.402344 28.550781 48.402344 28.988281 C 48.402344 29.429688 48.046875 29.789062 47.605469 29.789062 Z M 47.605469 29.789062 "/>
</g>
</svg>
