<?xml version="1.0" encoding="UTF-8"?>
<svg xmlns="http://www.w3.org/2000/svg" xmlns:xlink="http://www.w3.org/1999/xlink" width="50px" height="50px" viewBox="0 0 50 50" version="1.1">
<g id="surface1">
<path style=" stroke:none;fill-rule:nonzero;fill:rgb(99.215686%,51.764709%,41.176471%);fill-opacity:1;" d="M 50 25 C 50 11.191406 38.808594 0 25 0 C 11.191406 0 0 11.191406 0 25 C 0 38.808594 11.191406 50 25 50 C 38.808594 50 50 38.808594 50 25 Z M 50 25 "/>
<path style=" stroke:none;fill-rule:nonzero;fill:rgb(100%,81.568629%,35.686275%);fill-opacity:1;" d="M 20.109375 23.535156 C 20.128906 20.761719 21.683594 17.96875 21.683594 17.96875 C 20.988281 21.160156 23.574219 23.050781 23.574219 23.050781 C 19.8125 17.890625 25.160156 14.820312 25.160156 14.820312 C 25.160156 14.820312 23.574219 16.535156 25.820312 19.03125 C 25.820312 19.03125 27.664062 20.902344 28.328125 23.535156 L 29.117188 23.535156 C 35.207031 19.039062 29.386719 10.019531 29.386719 10.019531 C 30.476562 14.566406 26.058594 17.335938 26.058594 17.335938 C 32.40625 10.007812 23.980469 5.761719 23.625 5.59375 C 23.792969 5.761719 26.097656 8.136719 22.367188 11.632812 C 22.367188 11.632812 15.882812 17.246094 18.019531 23.523438 L 20.109375 23.523438 Z M 20.109375 23.535156 "/>
<path style=" stroke:none;fill-rule:nonzero;fill:rgb(100%,100%,100%);fill-opacity:1;" d="M 39.1875 40.664062 L 10.8125 40.664062 C 10.753906 40.664062 10.703125 40.613281 10.703125 40.554688 L 10.703125 23.535156 C 10.703125 23.476562 10.753906 23.425781 10.8125 23.425781 L 39.179688 23.425781 C 39.238281 23.425781 39.289062 23.476562 39.289062 23.535156 L 39.289062 40.554688 C 39.296875 40.613281 39.246094 40.664062 39.1875 40.664062 Z M 39.1875 40.664062 "/>
<path style=" stroke:none;fill-rule:nonzero;fill:rgb(32.941177%,75.294119%,92.156863%);fill-opacity:1;" d="M 10.703125 32.386719 L 10.703125 40.21875 C 10.703125 40.464844 10.902344 40.664062 11.148438 40.664062 L 38.851562 40.664062 C 39.097656 40.664062 39.296875 40.464844 39.296875 40.21875 L 39.296875 32.386719 Z M 10.703125 32.386719 "/>
<path style=" stroke:none;fill-rule:nonzero;fill:rgb(19.607843%,29.019609%,36.862746%);fill-opacity:1;" d="M 19.515625 25.457031 L 20.59375 25.457031 L 20.59375 30.296875 L 19.515625 30.296875 L 19.515625 28.394531 L 17.59375 28.394531 L 17.59375 30.296875 L 16.515625 30.296875 L 16.515625 25.457031 L 17.59375 25.457031 L 17.59375 27.476562 L 19.515625 27.476562 Z M 19.515625 25.457031 "/>
<path style=" stroke:none;fill-rule:nonzero;fill:rgb(19.607843%,29.019609%,36.862746%);fill-opacity:1;" d="M 27.238281 29.625 C 26.753906 30.097656 26.148438 30.335938 25.425781 30.335938 C 24.710938 30.335938 24.109375 30.097656 23.613281 29.625 C 23.117188 29.148438 22.882812 28.554688 22.882812 27.839844 C 22.882812 27.128906 23.128906 26.535156 23.613281 26.058594 C 24.097656 25.585938 24.703125 25.347656 25.425781 25.347656 C 26.140625 25.347656 26.742188 25.585938 27.238281 26.058594 C 27.722656 26.535156 27.96875 27.128906 27.96875 27.839844 C 27.96875 28.554688 27.734375 29.148438 27.238281 29.625 Z M 26.871094 27.851562 C 26.871094 27.414062 26.734375 27.050781 26.457031 26.742188 C 26.179688 26.433594 25.839844 26.285156 25.4375 26.285156 C 25.03125 26.285156 24.691406 26.433594 24.414062 26.742188 C 24.136719 27.050781 24 27.414062 24 27.851562 C 24 28.289062 24.136719 28.652344 24.414062 28.949219 C 24.691406 29.257812 25.03125 29.40625 25.4375 29.40625 C 25.839844 29.40625 26.179688 29.257812 26.457031 28.949219 C 26.734375 28.644531 26.871094 28.277344 26.871094 27.851562 Z M 26.871094 27.851562 "/>
<path style=" stroke:none;fill-rule:nonzero;fill:rgb(19.607843%,29.019609%,36.862746%);fill-opacity:1;" d="M 32.1875 26.386719 L 32.1875 30.289062 L 31.109375 30.289062 L 31.109375 26.386719 L 29.742188 26.386719 L 29.742188 25.457031 L 33.5625 25.457031 L 33.5625 26.386719 Z M 32.1875 26.386719 "/>
<path style=" stroke:none;fill-rule:nonzero;fill:rgb(100%,100%,100%);fill-opacity:1;" d="M 16.625 34.5625 C 16.902344 34.800781 17.050781 35.167969 17.050781 35.664062 C 17.050781 36.160156 16.902344 36.515625 16.613281 36.753906 C 16.328125 36.988281 15.882812 37.097656 15.296875 37.097656 L 14.761719 37.097656 L 14.761719 38.21875 L 13.871094 38.21875 L 13.871094 34.207031 L 15.285156 34.207031 C 15.902344 34.207031 16.347656 34.328125 16.625 34.5625 Z M 15.96875 36.136719 C 16.078125 36.019531 16.128906 35.839844 16.128906 35.613281 C 16.128906 35.386719 16.058594 35.21875 15.921875 35.117188 C 15.78125 35.019531 15.5625 34.96875 15.265625 34.96875 L 14.761719 34.96875 L 14.761719 36.316406 L 15.367188 36.316406 C 15.664062 36.328125 15.863281 36.265625 15.96875 36.136719 Z M 15.96875 36.136719 "/>
<path style=" stroke:none;fill-rule:nonzero;fill:rgb(100%,100%,100%);fill-opacity:1;" d="M 22.136719 35.535156 C 22.136719 36.179688 21.882812 36.59375 21.375 36.78125 L 22.386719 38.21875 L 21.289062 38.21875 L 20.394531 36.941406 L 19.78125 36.941406 L 19.78125 38.21875 L 18.890625 38.21875 L 18.890625 34.207031 L 20.40625 34.207031 C 21.03125 34.207031 21.476562 34.316406 21.742188 34.523438 C 22 34.734375 22.136719 35.070312 22.136719 35.535156 Z M 21.058594 36.011719 C 21.167969 35.910156 21.226562 35.753906 21.226562 35.535156 C 21.226562 35.316406 21.167969 35.167969 21.058594 35.089844 C 20.941406 35.007812 20.742188 34.96875 20.457031 34.96875 L 19.78125 34.96875 L 19.78125 36.160156 L 20.4375 36.160156 C 20.742188 36.160156 20.949219 36.109375 21.058594 36.011719 Z M 21.058594 36.011719 "/>
<path style=" stroke:none;fill-rule:nonzero;fill:rgb(100%,100%,100%);fill-opacity:1;" d="M 24.199219 34.207031 L 25.089844 34.207031 L 25.089844 38.207031 L 24.199219 38.207031 Z M 24.199219 34.207031 "/>
<path style=" stroke:none;fill-rule:nonzero;fill:rgb(100%,100%,100%);fill-opacity:1;" d="M 29.058594 37.425781 C 29.496094 37.425781 29.863281 37.246094 30.140625 36.902344 L 30.710938 37.496094 C 30.257812 38.011719 29.722656 38.265625 29.109375 38.265625 C 28.496094 38.265625 27.980469 38.070312 27.585938 37.683594 C 27.1875 37.296875 26.988281 36.800781 26.988281 36.207031 C 26.988281 35.613281 27.199219 35.117188 27.605469 34.722656 C 28.011719 34.328125 28.503906 34.128906 29.097656 34.128906 C 29.753906 34.128906 30.308594 34.375 30.753906 34.882812 L 30.199219 35.515625 C 29.910156 35.167969 29.5625 34.988281 29.148438 34.988281 C 28.8125 34.988281 28.523438 35.097656 28.289062 35.316406 C 28.050781 35.535156 27.929688 35.832031 27.929688 36.207031 C 27.929688 36.585938 28.039062 36.882812 28.265625 37.109375 C 28.464844 37.308594 28.742188 37.425781 29.058594 37.425781 Z M 29.058594 37.425781 "/>
<path style=" stroke:none;fill-rule:nonzero;fill:rgb(100%,100%,100%);fill-opacity:1;" d="M 35.445312 34.207031 L 35.445312 35 L 33.457031 35 L 33.457031 35.820312 L 35.246094 35.820312 L 35.246094 36.585938 L 33.457031 36.585938 L 33.457031 37.414062 L 35.515625 37.414062 L 35.515625 38.207031 L 32.566406 38.207031 L 32.566406 34.207031 Z M 35.445312 34.207031 "/>
</g>
</svg>
